<svg id="splitsvg" xmlns="http://www.w3.org/2000/svg" xmlns:xlink="http://www.w3.org/1999/xlink" version="1.1" width="1380" height="400"><g id="svgg"><path id="path0" d="M185.223 0.758 C 184.727 1.684,182.793 2.400,180.784 2.400 C 179.961 2.400,178.503 2.756,177.544 3.191 C 176.585 3.626,175.184 3.986,174.431 3.991 C 173.679 3.996,172.756 4.278,172.381 4.617 C 172.006 4.957,171.002 5.341,170.150 5.471 C 169.297 5.602,168.318 5.952,167.974 6.249 C 167.629 6.547,166.729 6.911,165.974 7.057 C 165.218 7.204,164.171 7.656,163.646 8.062 C 163.121 8.468,162.367 8.800,161.970 8.800 C 161.572 8.800,161.125 8.998,160.975 9.241 C 160.825 9.483,160.139 9.949,159.451 10.276 C 156.956 11.460,152.655 14.182,149.000 16.890 C 144.015 20.583,136.203 30.115,133.010 36.400 C 132.396 37.610,131.557 39.266,131.146 40.079 C 130.736 40.893,130.400 41.885,130.400 42.285 C 130.400 42.685,130.040 43.684,129.600 44.504 C 129.160 45.325,128.800 46.585,128.800 47.304 C 128.800 48.024,128.415 49.329,127.945 50.206 C 126.646 52.628,126.661 72.198,127.964 74.628 C 128.424 75.486,128.801 76.911,128.803 77.794 C 128.804 78.723,129.140 79.906,129.600 80.600 C 130.037 81.260,130.396 82.132,130.397 82.537 C 130.399 82.942,130.760 83.731,131.200 84.291 C 131.640 84.850,132.000 85.633,132.000 86.030 C 132.000 86.428,132.198 86.875,132.441 87.025 C 132.683 87.175,133.149 87.861,133.476 88.549 C 135.817 93.483,139.717 98.597,145.559 104.400 C 147.663 106.490,149.659 108.584,149.993 109.053 C 150.911 110.343,157.017 115.156,158.710 115.924 C 159.530 116.296,163.080 118.511,166.600 120.847 C 170.120 123.183,173.540 125.395,174.200 125.763 C 174.860 126.131,176.120 126.865,177.000 127.395 C 177.880 127.925,178.960 128.545,179.400 128.773 C 180.382 129.280,182.490 130.608,184.834 132.195 C 185.806 132.853,187.050 133.618,187.600 133.896 C 188.150 134.174,190.580 135.476,193.000 136.789 C 195.420 138.102,198.145 139.527,199.056 139.955 C 199.967 140.383,200.832 140.929,200.980 141.167 C 201.127 141.405,201.569 141.600,201.962 141.600 C 202.355 141.600,203.002 141.960,203.400 142.400 C 203.798 142.840,204.432 143.200,204.808 143.200 C 205.184 143.200,205.921 143.522,206.446 143.916 C 206.971 144.310,207.850 144.853,208.400 145.124 C 208.950 145.394,210.120 146.045,211.000 146.570 C 213.805 148.244,214.533 148.651,217.800 150.372 C 219.560 151.300,221.360 152.369,221.800 152.748 C 222.240 153.126,223.067 153.669,223.638 153.953 C 228.986 156.612,241.600 169.554,241.600 172.381 C 241.600 172.652,241.960 173.331,242.400 173.891 C 242.889 174.513,243.200 175.514,243.200 176.468 C 243.200 177.326,243.515 178.509,243.900 179.096 C 244.496 180.005,244.600 181.153,244.600 186.799 C 244.600 192.444,244.496 193.593,243.900 194.503 C 243.515 195.091,243.200 196.049,243.200 196.631 C 243.200 197.214,242.862 198.346,242.449 199.146 C 242.036 199.945,241.494 201.050,241.245 201.600 C 239.907 204.551,236.362 209.166,233.114 212.184 C 230.435 214.672,225.827 217.600,224.588 217.600 C 224.444 217.600,223.869 217.960,223.309 218.400 C 222.750 218.840,221.978 219.200,221.595 219.200 C 221.212 219.200,220.683 219.458,220.421 219.774 C 220.159 220.090,219.372 220.474,218.672 220.626 C 217.973 220.779,216.971 221.241,216.446 221.652 C 215.921 222.063,215.014 222.400,214.431 222.400 C 213.847 222.400,212.663 222.760,211.800 223.200 C 210.733 223.744,209.441 224.000,207.764 224.000 C 206.382 224.000,204.617 224.287,203.749 224.653 C 201.763 225.490,192.609 225.563,191.145 224.754 C 190.625 224.466,188.897 224.119,187.304 223.981 C 185.456 223.822,184.142 223.490,183.673 223.066 C 183.268 222.700,182.480 222.400,181.922 222.400 C 181.364 222.400,180.450 222.040,179.891 221.600 C 179.331 221.160,178.521 220.800,178.091 220.800 C 177.660 220.800,176.850 220.440,176.291 220.000 C 175.731 219.560,175.011 219.200,174.691 219.200 C 174.370 219.200,173.679 218.872,173.154 218.471 C 172.629 218.071,171.129 217.315,169.820 216.792 C 165.608 215.111,153.600 204.756,153.600 202.805 C 153.600 202.582,153.451 202.400,153.268 202.400 C 152.719 202.400,150.550 199.115,149.967 197.400 C 149.667 196.520,149.102 195.371,148.711 194.846 C 148.320 194.321,148.000 193.674,148.000 193.408 C 148.000 193.142,147.640 192.598,147.200 192.200 C 146.760 191.802,146.400 191.217,146.400 190.901 C 146.400 190.585,146.040 189.869,145.600 189.309 C 145.160 188.750,144.800 188.037,144.800 187.725 C 144.800 187.414,144.458 186.493,144.040 185.679 C 143.622 184.866,142.902 183.455,142.440 182.546 C 141.978 181.636,141.600 180.324,141.600 179.631 C 141.600 178.939,141.297 177.909,140.926 177.343 C 140.544 176.760,140.123 174.987,139.956 173.257 C 139.793 171.576,139.329 168.980,138.924 167.489 L 138.188 164.777 133.535 164.689 C 129.668 164.615,128.746 164.476,128.074 163.867 C 127.133 163.015,122.915 163.096,119.400 164.034 C 115.949 164.954,62.315 164.833,60.249 163.899 L 58.699 163.198 57.249 164.507 C 56.452 165.227,55.424 166.082,54.963 166.408 C 53.572 167.393,53.200 168.592,53.206 172.074 C 53.215 176.886,54.074 177.413,62.400 177.715 C 65.566 177.829,67.987 178.124,69.000 178.518 C 69.985 178.901,72.444 179.213,75.400 179.330 C 79.858 179.508,84.698 180.538,85.680 181.520 C 86.415 182.255,86.237 373.379,85.500 374.503 C 85.115 375.091,84.800 375.770,84.800 376.013 C 84.800 376.727,82.753 379.200,82.162 379.200 C 81.864 379.200,81.030 379.559,80.310 379.999 C 79.589 380.438,78.319 380.798,77.486 380.799 C 76.653 380.799,75.544 381.080,75.022 381.422 C 74.494 381.768,72.500 382.200,70.536 382.393 C 68.591 382.584,66.100 382.920,65.000 383.139 C 62.631 383.612,55.906 384.463,52.800 384.684 C 51.590 384.770,50.015 385.142,49.300 385.511 L 48.000 386.182 48.000 390.470 C 48.000 394.347,48.086 394.857,48.900 395.783 C 49.395 396.346,50.340 397.517,51.000 398.385 C 52.247 400.025,53.688 400.484,54.280 399.431 C 55.577 397.122,139.020 397.065,141.568 399.371 C 142.537 400.248,142.456 400.289,145.479 397.397 L 148.200 394.795 148.340 391.185 C 148.575 385.155,148.224 384.810,141.840 384.787 C 139.838 384.780,136.940 384.598,135.400 384.384 C 133.860 384.169,129.408 383.823,125.506 383.614 C 121.604 383.405,118.061 383.047,117.632 382.817 C 117.203 382.588,115.436 382.400,113.704 382.400 C 109.584 382.400,105.600 379.507,105.600 376.515 C 105.600 375.996,105.285 375.091,104.900 374.504 C 104.240 373.496,104.193 368.702,104.081 290.618 C 103.959 205.838,103.976 204.800,105.458 204.800 C 106.460 204.800,108.759 207.934,108.786 209.337 C 108.794 209.742,109.160 210.531,109.600 211.091 C 110.040 211.650,110.400 212.428,110.400 212.819 C 110.400 213.210,111.036 214.491,111.813 215.665 C 112.590 216.839,113.340 218.250,113.480 218.800 C 113.621 219.350,114.064 220.340,114.466 221.000 C 114.868 221.660,115.198 222.583,115.199 223.051 C 115.199 223.519,115.470 224.126,115.800 224.400 C 116.130 224.674,116.400 225.204,116.400 225.578 C 116.400 226.562,117.537 229.964,118.431 231.654 C 118.854 232.454,119.204 233.354,119.209 233.654 C 119.214 233.955,119.570 234.650,120.000 235.200 C 120.430 235.750,120.790 236.560,120.800 237.000 C 120.810 237.440,121.170 238.250,121.600 238.800 C 122.030 239.350,122.386 240.132,122.391 240.537 C 122.396 240.942,122.760 241.731,123.200 242.291 C 123.640 242.850,124.000 243.660,124.000 244.091 C 124.000 244.521,124.360 245.331,124.800 245.891 C 125.240 246.450,125.600 247.306,125.600 247.792 C 125.600 248.278,125.960 249.002,126.400 249.400 C 126.840 249.798,127.200 250.362,127.200 250.652 C 127.200 250.943,127.559 251.770,127.999 252.490 C 128.438 253.211,128.798 254.042,128.799 254.337 C 128.799 254.632,129.160 255.331,129.600 255.891 C 130.040 256.450,130.400 257.312,130.400 257.805 C 130.400 258.298,130.658 258.917,130.974 259.179 C 131.290 259.441,131.671 260.213,131.821 260.894 C 131.970 261.576,132.431 262.688,132.845 263.367 C 133.259 264.045,133.602 264.870,133.607 265.200 C 133.613 265.530,133.970 266.250,134.400 266.800 C 134.830 267.350,135.186 268.132,135.191 268.537 C 135.196 268.942,135.560 269.731,136.000 270.291 C 136.440 270.850,136.800 271.660,136.800 272.091 C 136.800 272.521,137.160 273.331,137.600 273.891 C 138.040 274.450,138.400 275.260,138.400 275.691 C 138.400 276.121,138.760 276.931,139.200 277.491 C 139.640 278.050,140.001 278.799,140.002 279.154 C 140.004 279.979,141.721 283.378,142.560 284.217 C 142.912 284.569,143.200 285.221,143.200 285.665 C 143.200 286.110,143.560 286.931,144.000 287.491 C 144.440 288.050,144.800 288.860,144.800 289.291 C 144.800 289.721,145.160 290.531,145.600 291.091 C 146.040 291.650,146.400 292.460,146.400 292.891 C 146.400 293.321,146.760 294.131,147.200 294.691 C 147.640 295.250,148.000 296.074,148.000 296.522 C 148.000 296.970,148.286 297.653,148.636 298.039 C 149.279 298.751,149.898 300.670,150.290 303.177 C 150.409 303.934,150.841 305.104,151.251 305.777 C 151.661 306.450,151.998 307.328,151.999 307.729 C 151.999 308.129,152.270 308.727,152.599 309.057 C 152.929 309.386,153.317 310.138,153.460 310.728 C 153.604 311.318,154.055 312.229,154.461 312.754 C 154.867 313.279,155.200 314.094,155.200 314.565 C 155.200 315.036,155.560 315.730,156.000 316.107 C 156.440 316.484,156.800 317.081,156.800 317.433 C 156.800 317.785,157.160 318.531,157.600 319.091 C 158.040 319.650,158.400 320.439,158.400 320.844 C 158.400 321.249,158.759 322.170,159.199 322.890 C 159.638 323.611,159.998 324.442,159.999 324.737 C 159.999 325.032,160.360 325.731,160.800 326.291 C 161.240 326.850,161.600 327.660,161.600 328.091 C 161.600 328.521,161.960 329.331,162.400 329.891 C 162.840 330.450,163.200 331.260,163.200 331.691 C 163.200 332.121,163.560 332.931,164.000 333.491 C 164.440 334.050,164.800 334.860,164.800 335.291 C 164.800 335.721,165.160 336.531,165.600 337.091 C 166.040 337.650,166.400 338.460,166.400 338.891 C 166.400 339.321,166.760 340.131,167.200 340.691 C 167.640 341.250,168.000 342.060,168.000 342.491 C 168.000 342.921,168.360 343.731,168.800 344.291 C 169.240 344.850,169.600 345.712,169.600 346.205 C 169.600 346.698,169.863 347.320,170.185 347.587 C 170.506 347.854,170.891 348.461,171.040 348.936 C 171.188 349.411,171.645 350.229,172.055 350.754 C 172.465 351.279,172.800 352.060,172.800 352.491 C 172.800 352.921,173.160 353.731,173.600 354.291 C 174.040 354.850,174.400 355.660,174.400 356.091 C 174.400 356.521,174.760 357.331,175.200 357.891 C 175.640 358.450,176.000 359.149,176.000 359.444 C 176.000 359.739,176.359 360.570,176.799 361.290 C 177.238 362.011,177.598 362.932,177.599 363.337 C 177.599 363.742,177.960 364.531,178.400 365.091 C 178.840 365.650,179.200 366.460,179.200 366.891 C 179.200 367.321,179.560 368.131,180.000 368.691 C 180.440 369.250,180.800 370.134,180.800 370.654 C 180.800 371.174,180.958 371.600,181.151 371.600 C 181.345 371.600,181.723 372.185,181.992 372.900 C 182.261 373.615,182.636 374.560,182.826 375.000 C 183.015 375.440,183.567 377.240,184.052 379.000 C 184.536 380.760,185.263 382.572,185.666 383.026 C 186.070 383.480,186.400 384.155,186.400 384.526 C 186.400 384.897,186.558 385.200,186.751 385.200 C 186.945 385.200,187.325 385.785,187.597 386.500 C 188.222 388.143,189.485 390.964,190.452 392.879 C 190.864 393.693,191.200 394.565,191.200 394.817 C 191.200 395.070,191.577 395.806,192.037 396.452 L 192.874 397.628 196.720 397.514 L 200.566 397.400 200.893 395.820 C 201.073 394.951,201.486 393.947,201.810 393.589 C 202.135 393.230,202.404 392.501,202.409 391.969 C 202.414 391.436,202.770 390.550,203.200 390.000 C 203.630 389.450,203.987 388.640,203.993 388.200 C 203.998 387.760,204.362 386.811,204.801 386.090 C 205.241 385.370,205.600 384.549,205.600 384.266 C 205.600 383.983,205.960 383.364,206.400 382.892 C 206.840 382.420,207.201 381.621,207.201 381.117 C 207.202 380.613,207.562 379.611,208.001 378.890 C 208.441 378.170,208.800 377.249,208.800 376.844 C 208.800 376.439,209.134 375.679,209.542 375.154 C 209.950 374.629,210.405 373.543,210.553 372.740 C 210.700 371.937,211.064 371.079,211.361 370.833 C 211.657 370.586,212.011 369.692,212.147 368.844 C 212.282 367.997,212.664 367.078,212.996 366.803 C 213.328 366.527,213.600 365.944,213.600 365.505 C 213.600 365.067,213.946 364.054,214.369 363.254 C 214.792 362.455,215.528 360.270,216.006 358.400 C 216.484 356.530,217.038 354.829,217.237 354.620 C 217.437 354.411,217.600 353.928,217.600 353.546 C 217.600 352.715,218.021 351.721,219.607 348.808 C 220.263 347.602,220.800 346.322,220.800 345.962 C 220.800 345.602,221.160 344.850,221.600 344.291 C 222.040 343.731,222.401 342.852,222.403 342.337 C 222.404 341.822,222.763 340.860,223.200 340.200 C 223.637 339.540,223.996 338.619,223.997 338.154 C 223.999 337.689,224.360 336.850,224.800 336.291 C 225.240 335.731,225.600 334.831,225.600 334.291 C 225.600 333.750,225.934 332.879,226.342 332.354 C 226.750 331.829,227.205 330.743,227.353 329.940 C 227.500 329.137,227.886 328.260,228.211 327.991 C 228.535 327.722,228.801 327.119,228.801 326.651 C 228.802 326.183,229.162 325.211,229.601 324.490 C 230.041 323.770,230.401 322.870,230.401 322.490 C 230.402 322.111,230.762 321.211,231.201 320.490 C 231.641 319.770,232.000 318.763,232.000 318.252 C 232.000 317.742,232.339 317.017,232.754 316.642 C 233.169 316.266,233.610 315.450,233.734 314.828 C 233.859 314.206,234.240 313.418,234.580 313.077 C 234.921 312.736,235.200 312.019,235.200 311.483 C 235.200 310.946,235.560 310.050,236.000 309.491 C 236.440 308.931,236.800 308.106,236.800 307.656 C 236.800 306.637,237.613 304.800,238.064 304.800 C 238.249 304.800,238.400 304.284,238.400 303.654 C 238.400 303.024,238.760 302.050,239.200 301.491 C 239.640 300.931,240.001 300.142,240.001 299.737 C 240.002 299.332,240.335 298.456,240.740 297.792 C 241.145 297.127,241.599 295.930,241.749 295.132 C 241.899 294.334,242.286 293.460,242.611 293.191 C 242.935 292.922,243.200 292.208,243.200 291.605 C 243.200 291.002,243.534 290.079,243.942 289.554 C 244.350 289.029,244.805 287.943,244.953 287.140 C 245.100 286.337,245.486 285.460,245.811 285.191 C 246.135 284.922,246.400 284.392,246.400 284.013 C 246.400 283.634,246.738 283.018,247.152 282.644 C 247.565 282.269,248.017 281.252,248.156 280.382 C 248.306 279.447,248.730 278.601,249.195 278.310 C 249.827 277.916,249.935 277.534,249.747 276.360 C 249.606 275.478,249.689 274.792,249.957 274.627 C 250.201 274.476,250.400 273.832,250.400 273.195 C 250.400 271.897,251.151 270.000,251.664 270.000 C 251.849 270.000,252.000 269.484,252.000 268.854 C 252.000 268.224,252.360 267.250,252.800 266.691 C 253.240 266.131,253.600 265.231,253.600 264.691 C 253.600 264.150,253.960 263.250,254.400 262.691 C 254.840 262.131,255.201 261.252,255.203 260.737 C 255.204 260.222,255.563 259.260,256.000 258.600 C 256.437 257.940,256.796 257.019,256.797 256.554 C 256.799 256.089,257.160 255.250,257.600 254.691 C 258.040 254.131,258.400 253.231,258.400 252.691 C 258.400 252.150,258.749 251.264,259.175 250.722 C 259.602 250.180,260.069 249.263,260.214 248.685 C 260.360 248.106,260.731 247.423,261.039 247.167 C 261.348 246.911,261.601 246.319,261.601 245.851 C 261.602 245.383,261.962 244.411,262.401 243.690 C 262.841 242.970,263.200 242.095,263.200 241.745 C 263.200 241.395,263.546 240.454,263.970 239.654 C 264.393 238.855,264.844 237.718,264.971 237.128 C 265.097 236.538,265.471 235.786,265.801 235.457 C 266.130 235.127,266.401 234.439,266.401 233.929 C 266.402 233.418,266.762 232.411,267.201 231.690 C 267.641 230.970,268.000 230.049,268.000 229.644 C 268.000 229.239,268.360 228.450,268.800 227.891 C 269.240 227.331,269.600 226.506,269.600 226.056 C 269.600 223.754,272.459 221.245,273.484 222.647 C 274.298 223.760,274.204 369.135,273.388 371.400 C 273.071 372.280,272.809 373.841,272.806 374.869 C 272.800 376.716,271.378 379.200,270.328 379.200 C 270.107 379.200,269.469 379.560,268.909 380.000 C 268.350 380.440,267.326 380.800,266.635 380.800 C 265.944 380.800,264.966 381.089,264.461 381.442 C 263.957 381.795,262.162 382.234,260.472 382.418 C 258.783 382.602,256.500 382.934,255.400 383.156 C 252.232 383.794,247.626 384.498,244.800 384.775 C 243.370 384.915,241.599 385.351,240.864 385.744 L 239.529 386.457 239.664 390.642 L 239.800 394.827 242.478 397.414 C 245.271 400.112,246.060 400.432,247.254 399.352 C 249.793 397.053,342.400 397.156,342.400 399.457 C 342.400 400.866,344.684 399.985,347.134 397.632 L 349.600 395.264 349.600 390.642 L 349.600 386.021 348.420 385.410 C 347.771 385.075,346.430 384.800,345.440 384.800 C 344.449 384.800,342.723 384.604,341.603 384.363 C 339.133 383.834,332.923 382.902,328.689 382.427 C 326.978 382.235,325.178 381.816,324.689 381.497 C 324.199 381.177,322.407 380.827,320.698 380.718 C 318.600 380.584,317.359 380.306,316.866 379.860 C 316.465 379.497,315.611 379.199,314.969 379.199 C 313.456 379.197,310.400 376.664,310.400 375.412 C 310.400 374.923,310.085 373.910,309.700 373.161 C 309.039 371.877,309.000 366.757,309.000 282.382 C 309.000 197.896,309.039 192.906,309.700 191.896 C 310.085 191.309,310.400 190.450,310.400 189.988 C 310.400 186.693,316.956 182.428,322.056 182.405 C 322.637 182.402,323.897 182.044,324.856 181.609 C 325.848 181.159,327.480 180.814,328.639 180.809 C 329.760 180.804,331.290 180.494,332.039 180.119 C 332.787 179.745,334.480 179.369,335.800 179.283 C 337.120 179.198,338.932 178.784,339.826 178.364 C 340.821 177.896,342.322 177.600,343.694 177.600 C 344.927 177.600,346.445 177.339,347.068 177.020 C 347.690 176.702,348.515 176.347,348.900 176.233 C 349.509 176.052,349.600 175.479,349.600 171.812 L 349.600 167.599 347.300 165.408 C 344.728 162.958,344.595 162.928,340.400 163.885 C 335.819 164.929,290.805 164.942,285.300 163.900 C 283.265 163.515,279.896 163.200,277.814 163.200 C 273.237 163.200,273.287 163.256,272.927 157.768 C 272.761 155.249,272.420 153.424,271.937 152.477 C 271.532 151.681,271.200 150.713,271.200 150.325 C 271.200 149.937,270.841 149.030,270.401 148.310 C 269.962 147.589,269.598 146.640,269.593 146.200 C 269.587 145.760,269.230 144.950,268.800 144.400 C 268.370 143.850,268.014 143.107,268.009 142.749 C 268.004 142.391,267.737 141.880,267.415 141.613 C 267.094 141.346,266.709 140.742,266.559 140.272 C 265.672 137.476,256.558 127.079,252.600 124.348 C 251.940 123.893,250.970 122.953,250.444 122.260 C 249.111 120.504,244.893 117.685,241.000 115.951 C 239.900 115.461,237.952 114.372,236.672 113.530 C 235.391 112.689,234.114 112.000,233.834 112.000 C 233.553 112.000,232.998 111.640,232.600 111.200 C 232.202 110.760,231.628 110.400,231.324 110.400 C 231.020 110.400,230.316 110.101,229.758 109.736 C 228.450 108.879,227.309 108.263,222.211 105.664 C 219.907 104.490,217.308 103.012,216.437 102.380 C 215.565 101.749,214.255 100.959,213.526 100.624 C 212.797 100.290,211.930 99.852,211.600 99.651 C 211.270 99.450,210.550 99.083,210.000 98.835 C 209.450 98.587,208.280 97.946,207.400 97.411 C 206.520 96.876,205.530 96.325,205.200 96.187 C 203.904 95.643,202.935 95.146,201.400 94.236 C 200.520 93.714,198.540 92.632,197.000 91.831 C 195.460 91.030,193.480 89.943,192.600 89.415 C 191.720 88.887,190.460 88.171,189.800 87.825 C 189.140 87.478,187.880 86.760,187.000 86.230 C 186.120 85.699,183.880 84.506,182.023 83.577 C 180.166 82.648,178.456 81.731,178.223 81.540 C 177.990 81.348,176.017 80.015,173.837 78.578 C 169.522 75.733,169.132 75.439,163.965 71.139 C 161.601 69.171,156.800 63.542,156.800 62.737 C 156.800 62.511,156.440 61.869,156.000 61.309 C 155.560 60.750,155.200 59.770,155.200 59.132 C 155.200 58.494,154.885 57.490,154.500 56.902 C 153.503 55.377,153.514 47.197,154.517 45.320 C 154.892 44.616,155.200 43.515,155.200 42.874 C 155.200 42.233,155.560 41.250,156.000 40.691 C 156.440 40.131,156.800 39.319,156.800 38.886 C 156.800 38.453,157.080 37.865,157.423 37.581 C 157.766 37.296,158.315 36.419,158.644 35.632 C 159.228 34.231,167.599 25.600,168.373 25.600 C 168.586 25.600,169.534 25.084,170.480 24.454 C 171.426 23.824,173.460 22.726,175.000 22.013 C 176.540 21.301,178.466 20.377,179.279 19.959 C 180.093 19.542,181.249 19.200,181.848 19.200 C 182.447 19.200,183.279 18.891,183.696 18.513 C 184.376 17.897,189.047 17.369,195.800 17.145 C 199.800 17.012,208.021 17.791,209.551 18.448 C 210.514 18.862,211.723 19.200,212.239 19.200 C 213.617 19.200,221.947 23.646,224.600 25.798 C 228.618 29.057,235.200 36.495,235.200 37.777 C 235.200 38.066,235.480 38.535,235.823 38.819 C 236.166 39.104,236.702 39.891,237.015 40.568 C 237.328 41.246,237.737 42.070,237.924 42.400 C 239.157 44.579,240.000 46.452,240.000 47.016 C 240.000 47.378,240.360 48.131,240.800 48.691 C 241.240 49.250,241.600 50.039,241.600 50.444 C 241.600 50.849,241.959 51.770,242.399 52.490 C 242.838 53.211,243.198 54.435,243.199 55.211 C 243.199 55.987,243.481 57.023,243.825 57.514 C 244.168 58.004,244.585 59.678,244.752 61.234 C 245.133 64.801,245.107 64.786,251.282 64.794 L 256.364 64.800 256.565 63.500 C 256.676 62.785,256.858 54.280,256.969 44.600 C 257.148 28.993,257.453 22.838,258.234 19.100 C 258.429 18.168,258.270 17.892,257.195 17.300 C 256.497 16.915,255.102 16.060,254.093 15.400 C 253.085 14.740,251.976 14.018,251.630 13.796 C 251.283 13.574,250.244 12.834,249.319 12.153 C 247.767 11.010,245.860 10.012,241.200 7.905 C 240.210 7.457,238.680 6.764,237.800 6.364 C 236.920 5.965,235.543 5.534,234.740 5.408 C 233.937 5.282,233.060 4.914,232.791 4.589 C 232.507 4.247,231.621 4.000,230.677 4.000 C 229.784 4.000,228.321 3.659,227.426 3.242 C 226.532 2.826,224.504 2.387,222.920 2.267 C 219.806 2.032,218.400 1.509,218.400 0.586 C 218.400 -0.446,185.776 -0.276,185.223 0.758 M78.700 162.282 C 79.195 162.378,80.005 162.378,80.500 162.282 C 80.995 162.187,80.590 162.109,79.600 162.109 C 78.610 162.109,78.205 162.187,78.700 162.282 M248.957 227.033 C 249.347 228.049,249.241 229.055,248.616 230.268 C 248.295 230.890,247.934 231.882,247.815 232.472 C 247.696 233.062,247.357 233.786,247.061 234.082 C 246.765 234.378,246.400 235.272,246.251 236.070 C 246.101 236.867,245.714 237.740,245.389 238.009 C 245.065 238.278,244.799 238.881,244.799 239.349 C 244.798 239.817,244.438 240.789,243.999 241.510 C 243.559 242.230,243.199 243.130,243.199 243.510 C 243.198 243.889,242.838 244.789,242.399 245.510 C 241.959 246.230,241.600 247.151,241.600 247.556 C 241.600 247.961,241.240 248.750,240.800 249.309 C 240.360 249.869,239.999 250.568,239.997 250.863 C 239.996 251.158,239.637 251.940,239.200 252.600 C 238.763 253.260,238.404 254.181,238.403 254.646 C 238.401 255.111,238.040 255.950,237.600 256.509 C 237.160 257.069,236.800 257.969,236.800 258.509 C 236.800 259.050,236.440 259.950,236.000 260.509 C 235.560 261.069,235.199 261.858,235.199 262.263 C 235.198 262.668,234.865 263.544,234.460 264.208 C 234.055 264.873,233.601 266.070,233.451 266.868 C 233.301 267.666,232.914 268.540,232.589 268.809 C 232.265 269.078,232.000 269.627,232.000 270.030 C 232.000 270.979,231.169 272.800,230.736 272.800 C 230.551 272.800,230.399 273.295,230.399 273.900 C 230.398 274.505,230.038 275.589,229.599 276.310 C 229.159 277.030,228.800 277.951,228.800 278.356 C 228.800 278.761,228.440 279.550,228.000 280.109 C 227.560 280.669,227.200 281.479,227.200 281.909 C 227.200 282.340,226.840 283.150,226.400 283.709 C 225.960 284.269,225.600 285.079,225.600 285.509 C 225.600 285.940,225.240 286.750,224.800 287.309 C 224.360 287.869,223.999 288.658,223.999 289.063 C 223.998 289.468,223.638 290.389,223.199 291.110 C 222.759 291.830,222.400 292.647,222.400 292.925 C 222.400 293.203,222.040 294.137,221.600 295.000 C 221.160 295.863,220.800 296.867,220.800 297.231 C 220.800 297.594,220.468 298.321,220.062 298.846 C 219.656 299.371,219.204 300.418,219.057 301.174 C 218.911 301.929,218.546 302.829,218.247 303.174 C 217.949 303.518,217.605 304.250,217.484 304.800 C 216.730 308.217,215.911 311.049,215.582 311.378 C 215.372 311.588,215.200 312.090,215.200 312.492 C 215.200 312.895,214.480 314.607,213.600 316.297 C 212.720 317.987,212.000 319.668,212.000 320.031 C 212.000 320.395,211.640 321.150,211.200 321.709 C 210.760 322.269,210.399 323.148,210.397 323.663 C 210.396 324.178,210.037 325.140,209.600 325.800 C 209.163 326.460,208.804 327.381,208.803 327.846 C 208.801 328.311,208.440 329.150,208.000 329.709 C 207.560 330.269,207.200 331.004,207.200 331.344 C 207.200 332.392,206.302 334.000,205.716 334.000 C 204.086 334.000,202.400 332.439,202.400 330.930 C 202.400 330.598,202.040 329.869,201.600 329.309 C 201.160 328.750,200.800 327.940,200.800 327.509 C 200.800 327.079,200.440 326.269,200.000 325.709 C 199.560 325.150,199.200 324.340,199.200 323.909 C 199.200 323.479,198.840 322.669,198.400 322.109 C 197.960 321.550,197.600 320.749,197.600 320.330 C 197.600 319.911,197.278 319.080,196.884 318.484 C 195.700 316.692,195.216 315.851,194.764 314.800 C 194.527 314.250,193.989 313.134,193.567 312.321 C 193.145 311.507,192.800 310.546,192.800 310.184 C 192.800 309.822,192.440 309.069,192.000 308.509 C 191.560 307.950,191.200 307.140,191.200 306.709 C 191.200 306.279,190.840 305.469,190.400 304.909 C 189.960 304.350,189.600 303.637,189.600 303.325 C 189.600 303.014,189.262 302.093,188.849 301.279 C 188.435 300.466,187.715 298.945,187.249 297.900 C 186.782 296.855,186.057 295.235,185.637 294.300 C 184.466 291.690,183.705 289.628,182.945 287.000 C 182.563 285.680,181.924 284.228,181.525 283.774 C 181.126 283.320,180.800 282.739,180.800 282.484 C 180.800 282.228,180.441 281.430,180.001 280.710 C 179.562 279.989,179.198 279.130,179.193 278.800 C 179.187 278.470,178.830 277.750,178.400 277.200 C 177.970 276.650,177.614 275.868,177.609 275.463 C 177.604 275.058,177.240 274.269,176.800 273.709 C 176.360 273.150,176.000 272.340,176.000 271.909 C 176.000 271.479,175.640 270.669,175.200 270.109 C 174.760 269.550,174.400 268.740,174.400 268.309 C 174.400 267.879,174.040 267.069,173.600 266.509 C 173.160 265.950,172.800 265.140,172.800 264.709 C 172.800 264.279,172.440 263.469,172.000 262.909 C 171.560 262.350,171.200 261.540,171.200 261.109 C 171.200 260.679,170.840 259.869,170.400 259.309 C 169.960 258.750,169.600 257.940,169.600 257.509 C 169.600 257.079,169.240 256.269,168.800 255.709 C 168.360 255.150,168.000 254.288,168.000 253.795 C 168.000 253.302,167.737 252.680,167.415 252.413 C 167.094 252.146,166.709 251.539,166.560 251.064 C 166.412 250.589,165.955 249.771,165.545 249.246 C 165.135 248.721,164.800 247.940,164.800 247.509 C 164.800 247.079,164.440 246.269,164.000 245.709 C 163.560 245.150,163.200 244.277,163.200 243.770 C 163.200 243.262,163.020 242.736,162.800 242.600 C 160.285 241.045,165.034 239.573,168.115 240.952 C 168.910 241.308,171.382 241.609,174.600 241.741 C 177.460 241.859,181.319 242.249,183.175 242.607 C 186.858 243.319,195.260 243.247,199.000 242.472 C 200.100 242.244,203.340 241.938,206.200 241.792 C 209.335 241.632,211.916 241.296,212.700 240.944 C 213.415 240.624,214.945 240.261,216.100 240.138 C 217.255 240.015,218.932 239.574,219.826 239.157 C 220.721 238.741,222.206 238.400,223.126 238.400 C 224.047 238.400,224.800 238.256,224.800 238.080 C 224.800 237.725,227.135 236.799,228.028 236.801 C 228.570 236.802,230.361 236.025,233.679 234.348 C 234.493 233.936,235.445 233.600,235.796 233.600 C 236.147 233.600,236.820 233.240,237.292 232.800 C 237.764 232.360,238.455 232.000,238.826 232.000 C 239.198 232.000,239.723 231.734,239.993 231.408 C 240.263 231.083,240.960 230.576,241.542 230.282 C 243.446 229.319,244.568 228.617,245.986 227.500 C 247.559 226.261,248.598 226.097,248.957 227.033 M105.709 261.200 C 105.709 262.190,105.787 262.595,105.882 262.100 C 105.978 261.605,105.978 260.795,105.882 260.300 C 105.787 259.805,105.709 260.210,105.709 261.200 M105.740 278.000 C 105.740 279.870,105.809 280.635,105.893 279.700 C 105.977 278.765,105.977 277.235,105.893 276.300 C 105.809 275.365,105.740 276.130,105.740 278.000 M105.751 304.000 C 105.751 306.530,105.816 307.565,105.896 306.300 C 105.975 305.035,105.975 302.965,105.896 301.700 C 105.816 300.435,105.751 301.470,105.751 304.000 M105.773 319.600 C 105.773 324.990,105.830 327.195,105.899 324.500 C 105.968 321.805,105.968 317.395,105.899 314.700 C 105.830 312.005,105.773 314.210,105.773 319.600 M267.200 399.200 C 266.712 399.515,266.764 399.589,267.476 399.594 C 267.958 399.597,268.464 399.420,268.600 399.200 C 268.915 398.691,267.988 398.691,267.200 399.200 M317.790 399.184 C 317.932 399.413,318.517 399.600,319.090 399.600 C 320.344 399.600,320.199 399.408,318.666 399.040 C 317.923 398.862,317.621 398.911,317.790 399.184  M -25 0 L -5 0 L -5 20 L -25 20 Z M 405 0 L 425 0 L 425 20 L 405 20 Z" stroke="none" fill="#3d5a80" fill-rule="evenodd" transform="translate(30,0)"></path><path id="path1" d="M178.600 0.294 C 177.720 0.382,176.829 0.621,176.620 0.827 C 176.411 1.032,175.837 1.200,175.344 1.200 C 174.851 1.200,174.336 1.380,174.200 1.600 C 174.064 1.820,173.524 2.000,173.000 2.000 C 172.476 2.000,171.936 2.180,171.800 2.400 C 171.664 2.620,171.203 2.800,170.776 2.800 C 170.349 2.800,170.000 2.980,170.000 3.200 C 170.000 3.420,169.561 3.600,169.024 3.600 C 168.487 3.600,167.936 3.780,167.800 4.000 C 167.664 4.220,167.203 4.400,166.776 4.400 C 166.349 4.400,166.000 4.580,166.000 4.800 C 166.000 5.020,165.640 5.200,165.200 5.200 C 164.760 5.200,164.400 5.380,164.400 5.600 C 164.400 5.820,164.166 6.000,163.880 6.000 C 163.144 6.000,161.207 6.941,161.203 7.300 C 161.201 7.465,160.947 7.600,160.638 7.600 C 159.972 7.600,156.659 9.268,156.467 9.700 C 156.393 9.865,155.988 10.000,155.567 10.000 C 155.145 10.000,154.800 10.180,154.800 10.400 C 154.800 10.620,154.564 10.800,154.275 10.800 C 153.987 10.800,153.364 11.160,152.892 11.600 C 152.420 12.040,151.868 12.400,151.665 12.400 C 151.462 12.400,150.595 13.075,149.738 13.900 C 148.880 14.725,147.689 15.655,147.089 15.968 C 146.490 16.280,146.000 16.685,146.000 16.868 C 146.000 17.050,145.760 17.200,145.467 17.200 C 144.869 17.200,139.600 22.324,139.600 22.906 C 139.600 23.111,139.060 23.783,138.400 24.400 C 137.740 25.017,137.200 25.692,137.200 25.901 C 137.200 26.110,136.705 26.816,136.100 27.470 C 135.495 28.124,134.775 29.051,134.500 29.530 C 134.225 30.008,133.775 30.796,133.500 31.280 C 133.225 31.763,132.685 32.517,132.300 32.955 C 131.915 33.393,131.600 33.987,131.600 34.275 C 131.600 34.564,131.420 34.800,131.200 34.800 C 130.980 34.800,130.800 35.065,130.800 35.388 C 130.800 35.711,130.440 36.617,130.000 37.400 C 129.560 38.183,129.200 39.179,129.200 39.612 C 129.200 40.045,129.020 40.400,128.800 40.400 C 128.580 40.400,128.400 40.762,128.400 41.205 C 128.400 41.648,128.220 42.368,128.000 42.805 C 127.780 43.242,127.420 43.958,127.200 44.395 C 126.980 44.832,126.800 45.721,126.800 46.371 C 126.800 47.021,126.620 47.664,126.400 47.800 C 126.180 47.936,126.000 48.656,126.000 49.400 C 126.000 50.144,125.820 50.864,125.600 51.000 C 125.380 51.136,125.200 52.371,125.200 53.744 C 125.200 55.117,125.009 56.431,124.776 56.664 C 124.113 57.327,124.934 73.200,125.630 73.200 C 125.834 73.200,126.000 73.920,126.000 74.800 C 126.000 75.680,126.180 76.400,126.400 76.400 C 126.620 76.400,126.800 77.019,126.800 77.776 C 126.800 78.533,126.980 79.264,127.200 79.400 C 127.420 79.536,127.600 79.999,127.600 80.429 C 127.600 80.859,127.760 81.523,127.956 81.905 C 128.152 82.287,128.712 83.500,129.200 84.600 C 129.688 85.700,130.248 86.913,130.444 87.295 C 130.640 87.677,130.800 88.247,130.800 88.561 C 130.800 88.876,130.935 89.193,131.100 89.267 C 131.265 89.340,131.833 90.255,132.363 91.300 C 132.892 92.345,133.477 93.200,133.663 93.200 C 133.848 93.200,134.000 93.520,134.000 93.912 C 134.000 94.303,134.360 94.883,134.800 95.200 C 135.240 95.517,135.600 95.985,135.600 96.240 C 135.600 96.495,136.320 97.445,137.200 98.352 C 138.080 99.259,138.800 100.165,138.800 100.366 C 138.800 100.857,150.821 112.878,152.484 114.051 C 153.208 114.561,154.149 115.298,154.575 115.689 C 155.002 116.080,155.587 116.400,155.875 116.400 C 156.164 116.400,156.400 116.580,156.400 116.800 C 156.400 117.020,156.760 117.200,157.200 117.200 C 157.640 117.200,158.000 117.350,158.000 117.532 C 158.000 117.715,158.495 118.120,159.100 118.432 C 159.705 118.745,160.549 119.315,160.975 119.700 C 161.402 120.085,161.947 120.400,162.187 120.400 C 162.427 120.400,162.883 120.760,163.200 121.200 C 163.517 121.640,164.057 122.000,164.400 122.000 C 164.743 122.000,165.283 122.360,165.600 122.800 C 165.917 123.240,166.457 123.600,166.800 123.600 C 167.143 123.600,167.683 123.960,168.000 124.400 C 168.317 124.840,168.897 125.200,169.288 125.200 C 169.680 125.200,170.000 125.359,170.000 125.553 C 170.000 125.748,170.315 126.007,170.700 126.129 C 171.385 126.346,173.604 127.604,174.000 128.000 C 174.110 128.110,174.560 128.397,175.000 128.638 C 176.902 129.678,177.813 130.213,178.000 130.400 C 178.396 130.796,180.615 132.054,181.300 132.271 C 181.685 132.393,182.000 132.652,182.000 132.847 C 182.000 133.041,182.278 133.200,182.617 133.200 C 182.956 133.200,183.620 133.560,184.092 134.000 C 184.564 134.440,185.187 134.800,185.475 134.800 C 185.764 134.800,186.000 134.980,186.000 135.200 C 186.000 135.420,186.345 135.600,186.767 135.600 C 187.188 135.600,187.593 135.735,187.667 135.900 C 187.834 136.276,189.964 137.575,190.900 137.871 C 191.285 137.993,191.600 138.252,191.600 138.447 C 191.600 138.641,191.960 138.800,192.400 138.800 C 192.840 138.800,193.200 138.980,193.200 139.200 C 193.200 139.420,193.560 139.600,194.000 139.600 C 194.440 139.600,194.800 139.780,194.800 140.000 C 194.800 140.220,195.160 140.400,195.600 140.400 C 196.040 140.400,196.400 140.580,196.400 140.800 C 196.400 141.020,196.760 141.200,197.200 141.200 C 197.640 141.200,198.000 141.352,198.000 141.537 C 198.000 141.723,198.855 142.308,199.900 142.837 C 200.945 143.367,201.860 143.935,201.933 144.100 C 202.007 144.265,202.412 144.400,202.833 144.400 C 203.255 144.400,203.600 144.580,203.600 144.800 C 203.600 145.020,203.960 145.200,204.400 145.200 C 204.840 145.200,205.200 145.380,205.200 145.600 C 205.200 145.820,205.520 146.000,205.912 146.000 C 206.303 146.000,206.883 146.360,207.200 146.800 C 207.517 147.240,207.971 147.600,208.209 147.600 C 208.875 147.600,210.793 148.563,210.797 148.900 C 210.799 149.065,211.160 149.200,211.600 149.200 C 212.040 149.200,212.400 149.380,212.400 149.600 C 212.400 149.820,212.760 150.000,213.200 150.000 C 213.640 150.000,214.000 150.180,214.000 150.400 C 214.000 150.620,214.278 150.800,214.617 150.800 C 214.956 150.800,215.620 151.160,216.092 151.600 C 216.564 152.040,217.187 152.400,217.475 152.400 C 217.764 152.400,218.000 152.580,218.000 152.800 C 218.000 153.020,218.320 153.200,218.712 153.200 C 219.103 153.200,219.683 153.560,220.000 154.000 C 220.317 154.440,220.857 154.800,221.200 154.800 C 221.543 154.800,222.083 155.160,222.400 155.600 C 222.717 156.040,223.162 156.400,223.388 156.401 C 223.615 156.401,224.430 156.941,225.200 157.600 C 225.970 158.259,226.735 158.799,226.899 158.799 C 227.064 158.800,227.963 159.520,228.897 160.400 C 229.831 161.280,230.744 162.000,230.925 162.000 C 231.400 162.000,237.200 168.003,237.200 168.494 C 237.200 168.721,237.517 169.197,237.904 169.553 C 238.717 170.300,241.200 175.048,241.200 175.856 C 241.200 176.155,241.380 176.400,241.600 176.400 C 241.820 176.400,242.000 177.109,242.000 177.976 C 242.000 178.843,242.180 179.664,242.400 179.800 C 242.935 180.131,242.935 192.269,242.400 192.600 C 242.180 192.736,242.000 193.456,242.000 194.200 C 242.000 194.944,241.820 195.664,241.600 195.800 C 241.380 195.936,241.200 196.371,241.200 196.767 C 241.200 197.552,238.787 202.517,238.300 202.733 C 238.135 202.807,238.000 203.139,238.000 203.473 C 238.000 203.806,237.460 204.583,236.800 205.200 C 236.140 205.817,235.600 206.522,235.600 206.767 C 235.600 207.294,229.776 213.200,229.255 213.200 C 229.059 213.200,228.677 213.466,228.407 213.792 C 228.137 214.117,227.440 214.624,226.858 214.918 C 226.276 215.212,225.440 215.645,225.000 215.881 C 222.434 217.253,219.012 218.800,218.544 218.800 C 218.245 218.800,218.000 218.980,218.000 219.200 C 218.000 219.420,217.561 219.600,217.024 219.600 C 216.487 219.600,215.936 219.780,215.800 220.000 C 215.664 220.220,215.203 220.400,214.776 220.400 C 214.349 220.400,214.000 220.580,214.000 220.800 C 214.000 221.020,213.291 221.200,212.424 221.200 C 211.557 221.200,210.736 221.380,210.600 221.600 C 210.464 221.820,209.859 222.000,209.256 222.000 C 208.653 222.000,207.989 222.165,207.780 222.366 C 206.661 223.443,188.526 223.447,187.420 222.370 C 187.211 222.166,186.637 222.000,186.144 222.000 C 185.651 222.000,185.136 221.820,185.000 221.600 C 184.864 221.380,184.330 221.200,183.814 221.200 C 183.298 221.200,182.184 220.860,181.338 220.445 C 174.975 217.319,172.910 216.394,172.300 216.397 C 171.915 216.399,171.600 216.220,171.600 216.000 C 171.600 215.780,171.268 215.600,170.862 215.600 C 170.456 215.600,169.798 215.240,169.400 214.800 C 169.002 214.360,168.434 214.000,168.138 214.000 C 167.842 214.000,167.600 213.859,167.600 213.686 C 167.600 213.514,167.073 213.061,166.429 212.681 C 163.815 211.137,154.000 201.397,154.000 200.346 C 154.000 200.098,153.684 199.603,153.297 199.247 C 152.911 198.891,152.340 198.105,152.030 197.500 C 151.719 196.895,151.315 196.400,151.132 196.400 C 150.950 196.400,150.800 196.128,150.800 195.795 C 150.800 195.462,150.620 194.832,150.400 194.395 C 150.031 193.661,149.825 193.249,148.850 191.300 C 147.286 188.171,146.800 187.048,146.800 186.562 C 146.800 186.253,146.620 186.000,146.400 186.000 C 146.180 186.000,146.000 185.640,146.000 185.200 C 146.000 184.760,145.820 184.400,145.600 184.400 C 145.380 184.400,145.200 184.040,145.200 183.600 C 145.200 183.160,145.020 182.800,144.800 182.800 C 144.580 182.800,144.400 182.260,144.400 181.600 C 144.400 180.940,144.220 180.400,144.000 180.400 C 143.780 180.400,143.600 179.860,143.600 179.200 C 143.600 178.540,143.420 178.000,143.200 178.000 C 142.980 178.000,142.800 177.381,142.800 176.624 C 142.800 175.867,142.620 175.136,142.400 175.000 C 142.180 174.864,142.000 174.144,142.000 173.400 C 142.000 172.656,141.820 171.936,141.600 171.800 C 141.380 171.664,141.200 170.044,141.200 168.200 C 141.200 166.356,141.020 164.736,140.800 164.600 C 140.580 164.464,140.400 164.081,140.400 163.748 C 140.400 162.236,139.449 162.000,133.329 161.994 C 130.068 161.991,127.136 161.821,126.813 161.617 C 126.471 161.400,126.049 161.393,125.799 161.600 C 124.918 162.332,90.025 162.706,69.300 162.206 C 59.788 161.977,56.400 162.014,56.400 162.348 C 56.400 162.596,56.125 162.800,55.789 162.800 C 55.132 162.800,52.119 165.700,51.300 167.122 C 50.982 167.673,50.800 169.603,50.800 172.413 C 50.800 178.931,50.330 178.632,61.800 179.410 C 63.560 179.529,65.360 179.795,65.800 180.001 C 66.240 180.206,68.040 180.464,69.800 180.572 C 74.994 180.894,77.775 181.246,78.180 181.635 C 78.389 181.836,79.694 182.000,81.080 182.000 L 83.600 182.000 83.600 192.400 C 83.600 204.303,83.561 203.271,84.033 203.840 C 84.505 204.408,84.229 370.138,83.752 373.400 C 83.293 376.533,82.165 378.000,80.218 378.000 C 79.891 378.000,78.983 378.360,78.200 378.800 C 77.313 379.298,76.034 379.600,74.811 379.600 C 73.731 379.600,72.736 379.780,72.600 380.000 C 72.464 380.220,71.643 380.400,70.776 380.400 C 69.909 380.400,69.200 380.580,69.200 380.800 C 69.200 381.025,68.075 381.200,66.624 381.200 C 65.207 381.200,63.936 381.380,63.800 381.600 C 63.664 381.820,62.764 382.000,61.800 382.000 C 60.836 382.000,59.936 382.180,59.800 382.400 C 59.664 382.621,57.870 382.800,55.800 382.800 C 53.730 382.800,51.936 382.979,51.800 383.200 C 51.664 383.420,50.871 383.600,50.038 383.600 C 48.250 383.600,46.000 384.619,46.000 385.429 C 46.000 385.743,45.820 386.000,45.600 386.000 C 45.360 386.000,45.200 387.600,45.200 390.000 C 45.200 392.400,45.360 394.000,45.600 394.000 C 45.820 394.000,46.000 394.298,46.000 394.662 C 46.000 395.026,46.675 395.983,47.500 396.789 C 48.325 397.594,49.198 398.602,49.440 399.027 C 49.852 399.750,52.000 400.381,52.000 399.779 C 52.000 399.629,51.450 398.852,50.778 398.053 C 50.106 397.254,49.206 396.180,48.778 395.666 C 48.114 394.869,48.000 394.105,48.000 390.457 L 48.000 386.182 49.300 385.511 C 50.015 385.142,51.590 384.770,52.800 384.684 C 55.906 384.463,62.631 383.612,65.000 383.139 C 66.100 382.920,68.591 382.584,70.536 382.393 C 72.500 382.200,74.494 381.768,75.022 381.422 C 75.544 381.080,76.653 380.799,77.486 380.799 C 78.319 380.798,79.589 380.438,80.310 379.999 C 81.030 379.559,81.864 379.200,82.162 379.200 C 82.753 379.200,84.800 376.727,84.800 376.013 C 84.800 375.770,85.115 375.091,85.500 374.503 C 86.237 373.379,86.415 182.255,85.680 181.520 C 84.698 180.538,79.858 179.508,75.400 179.330 C 72.444 179.213,69.985 178.901,69.000 178.518 C 67.987 178.124,65.566 177.829,62.400 177.715 C 54.074 177.413,53.215 176.886,53.206 172.074 C 53.200 168.592,53.572 167.393,54.963 166.408 C 55.424 166.082,56.452 165.227,57.249 164.507 L 58.699 163.198 60.249 163.899 C 62.315 164.833,115.949 164.954,119.400 164.034 C 122.915 163.096,127.133 163.015,128.074 163.867 C 128.746 164.476,129.668 164.615,133.535 164.689 L 138.188 164.777 138.924 167.489 C 139.329 168.980,139.793 171.576,139.956 173.257 C 140.123 174.987,140.544 176.760,140.926 177.343 C 141.297 177.909,141.600 178.939,141.600 179.631 C 141.600 180.324,141.978 181.636,142.440 182.546 C 142.902 183.455,143.622 184.866,144.040 185.679 C 144.458 186.493,144.800 187.414,144.800 187.725 C 144.800 188.037,145.160 188.750,145.600 189.309 C 146.040 189.869,146.400 190.585,146.400 190.901 C 146.400 191.217,146.760 191.802,147.200 192.200 C 147.640 192.598,148.000 193.142,148.000 193.408 C 148.000 193.674,148.320 194.321,148.711 194.846 C 149.102 195.371,149.667 196.520,149.967 197.400 C 150.550 199.115,152.719 202.400,153.268 202.400 C 153.451 202.400,153.600 202.582,153.600 202.805 C 153.600 204.756,165.608 215.111,169.820 216.792 C 171.129 217.315,172.629 218.071,173.154 218.471 C 173.679 218.872,174.370 219.200,174.691 219.200 C 175.011 219.200,175.731 219.560,176.291 220.000 C 176.850 220.440,177.660 220.800,178.091 220.800 C 178.521 220.800,179.331 221.160,179.891 221.600 C 180.450 222.040,181.364 222.400,181.922 222.400 C 182.480 222.400,183.268 222.700,183.673 223.066 C 184.142 223.490,185.456 223.822,187.304 223.981 C 188.897 224.119,190.625 224.466,191.145 224.754 C 192.609 225.563,201.763 225.490,203.749 224.653 C 204.617 224.287,206.382 224.000,207.764 224.000 C 209.441 224.000,210.733 223.744,211.800 223.200 C 212.663 222.760,213.847 222.400,214.431 222.400 C 215.014 222.400,215.921 222.063,216.446 221.652 C 216.971 221.241,217.973 220.779,218.672 220.626 C 219.372 220.474,220.159 220.090,220.421 219.774 C 220.683 219.458,221.212 219.200,221.595 219.200 C 221.978 219.200,222.750 218.840,223.309 218.400 C 223.869 217.960,224.444 217.600,224.588 217.600 C 228.250 217.600,238.422 207.829,241.245 201.600 C 241.494 201.050,242.036 199.945,242.449 199.146 C 242.862 198.346,243.200 197.214,243.200 196.631 C 243.200 196.049,243.515 195.091,243.900 194.503 C 244.496 193.593,244.600 192.444,244.600 186.799 C 244.600 181.153,244.496 180.005,243.900 179.096 C 243.515 178.509,243.200 177.326,243.200 176.468 C 243.200 175.514,242.889 174.513,242.400 173.891 C 241.960 173.331,241.600 172.652,241.600 172.381 C 241.600 169.554,228.986 156.612,223.638 153.953 C 223.067 153.669,222.240 153.126,221.800 152.748 C 221.360 152.369,219.560 151.300,217.800 150.372 C 214.533 148.651,213.805 148.244,211.000 146.570 C 210.120 146.045,208.950 145.394,208.400 145.124 C 207.850 144.853,206.971 144.310,206.446 143.916 C 205.921 143.522,205.184 143.200,204.808 143.200 C 204.432 143.200,203.798 142.840,203.400 142.400 C 203.002 141.960,202.355 141.600,201.962 141.600 C 201.569 141.600,201.127 141.405,200.980 141.167 C 200.832 140.929,199.967 140.383,199.056 139.955 C 198.145 139.527,195.420 138.102,193.000 136.789 C 190.580 135.476,188.150 134.174,187.600 133.896 C 187.050 133.618,185.806 132.853,184.834 132.195 C 182.490 130.608,180.382 129.280,179.400 128.773 C 178.960 128.545,177.880 127.925,177.000 127.395 C 176.120 126.865,174.860 126.131,174.200 125.763 C 173.540 125.395,170.120 123.183,166.600 120.847 C 163.080 118.511,159.530 116.296,158.710 115.924 C 157.017 115.156,150.911 110.343,149.993 109.053 C 149.659 108.584,147.663 106.490,145.559 104.400 C 139.717 98.597,135.817 93.483,133.476 88.549 C 133.149 87.861,132.683 87.175,132.441 87.025 C 132.198 86.875,132.000 86.428,132.000 86.030 C 132.000 85.633,131.640 84.850,131.200 84.291 C 130.760 83.731,130.399 82.942,130.397 82.537 C 130.396 82.132,130.037 81.260,129.600 80.600 C 129.140 79.906,128.804 78.723,128.803 77.794 C 128.801 76.911,128.424 75.486,127.964 74.628 C 126.661 72.198,126.646 52.628,127.945 50.206 C 128.415 49.329,128.800 48.024,128.800 47.304 C 128.800 46.585,129.160 45.325,129.600 44.504 C 130.040 43.684,130.400 42.685,130.400 42.285 C 130.400 41.885,130.736 40.893,131.146 40.079 C 131.557 39.266,132.396 37.610,133.010 36.400 C 136.203 30.115,144.015 20.583,149.000 16.890 C 152.655 14.182,156.956 11.460,159.451 10.276 C 160.139 9.949,160.825 9.483,160.975 9.241 C 161.125 8.998,161.572 8.800,161.970 8.800 C 162.367 8.800,163.121 8.468,163.646 8.062 C 164.171 7.656,165.218 7.204,165.974 7.057 C 166.729 6.911,167.629 6.547,167.974 6.249 C 168.318 5.952,169.297 5.602,170.150 5.471 C 171.002 5.341,172.006 4.957,172.381 4.617 C 172.756 4.278,173.679 3.996,174.431 3.991 C 175.184 3.986,176.585 3.626,177.544 3.191 C 178.503 2.756,179.961 2.400,180.784 2.400 C 182.793 2.400,184.727 1.684,185.223 0.758 C 185.646 -0.034,183.438 -0.188,178.600 0.294 M218.400 0.526 C 218.400 1.509,219.748 2.028,222.920 2.267 C 224.504 2.387,226.532 2.826,227.426 3.242 C 228.321 3.659,229.784 4.000,230.677 4.000 C 231.621 4.000,232.507 4.247,232.791 4.589 C 233.060 4.914,233.937 5.282,234.740 5.408 C 235.543 5.534,237.010 6.014,238.000 6.473 C 238.990 6.933,240.520 7.626,241.400 8.014 C 245.437 9.792,247.767 11.010,249.319 12.153 C 250.244 12.834,251.283 13.574,251.630 13.796 C 251.976 14.018,253.085 14.740,254.093 15.400 C 255.102 16.060,256.497 16.915,257.195 17.300 C 258.270 17.892,258.429 18.168,258.234 19.100 C 257.453 22.838,257.148 28.993,256.969 44.600 C 256.858 54.280,256.676 62.785,256.565 63.500 L 256.364 64.800 251.282 64.794 C 245.107 64.786,245.133 64.801,244.752 61.234 C 244.585 59.678,244.168 58.004,243.825 57.514 C 243.481 57.023,243.199 55.987,243.199 55.211 C 243.198 54.435,242.838 53.211,242.399 52.490 C 241.959 51.770,241.600 50.849,241.600 50.444 C 241.600 50.039,241.240 49.250,240.800 48.691 C 240.360 48.131,240.000 47.378,240.000 47.016 C 240.000 46.452,239.157 44.579,237.924 42.400 C 237.737 42.070,237.328 41.246,237.015 40.568 C 236.702 39.891,236.166 39.104,235.823 38.819 C 235.480 38.535,235.200 38.066,235.200 37.777 C 235.200 36.495,228.618 29.057,224.600 25.798 C 221.947 23.646,213.617 19.200,212.239 19.200 C 211.723 19.200,210.514 18.862,209.551 18.448 C 208.021 17.791,199.800 17.012,195.800 17.145 C 189.047 17.369,184.376 17.897,183.696 18.513 C 183.279 18.891,182.447 19.200,181.848 19.200 C 181.249 19.200,180.093 19.542,179.279 19.959 C 178.466 20.377,176.540 21.301,175.000 22.013 C 173.460 22.726,171.426 23.824,170.480 24.454 C 169.534 25.084,168.586 25.600,168.373 25.600 C 167.599 25.600,159.228 34.231,158.644 35.632 C 158.315 36.419,157.766 37.296,157.423 37.581 C 157.080 37.865,156.800 38.453,156.800 38.886 C 156.800 39.319,156.440 40.131,156.000 40.691 C 155.560 41.250,155.200 42.233,155.200 42.874 C 155.200 43.515,154.892 44.616,154.517 45.320 C 153.514 47.197,153.503 55.377,154.500 56.902 C 154.885 57.490,155.200 58.494,155.200 59.132 C 155.200 59.770,155.560 60.750,156.000 61.309 C 156.440 61.869,156.800 62.511,156.800 62.737 C 156.800 63.542,161.601 69.171,163.965 71.139 C 169.132 75.439,169.522 75.733,173.837 78.578 C 176.017 80.015,177.990 81.348,178.223 81.540 C 178.456 81.731,180.166 82.648,182.023 83.577 C 183.880 84.506,186.120 85.699,187.000 86.230 C 187.880 86.760,189.140 87.478,189.800 87.825 C 190.460 88.171,191.720 88.887,192.600 89.415 C 193.480 89.943,195.460 91.030,197.000 91.831 C 198.540 92.632,200.520 93.714,201.400 94.236 C 202.935 95.146,203.904 95.643,205.200 96.187 C 205.530 96.325,206.520 96.876,207.400 97.411 C 208.280 97.946,209.450 98.587,210.000 98.835 C 210.550 99.083,211.270 99.450,211.600 99.651 C 211.930 99.852,212.797 100.290,213.526 100.624 C 214.255 100.959,215.565 101.749,216.437 102.380 C 217.308 103.012,219.907 104.490,222.211 105.664 C 227.309 108.263,228.450 108.879,229.758 109.736 C 230.316 110.101,231.020 110.400,231.324 110.400 C 231.628 110.400,232.202 110.760,232.600 111.200 C 232.998 111.640,233.553 112.000,233.834 112.000 C 234.114 112.000,235.391 112.689,236.672 113.530 C 237.952 114.372,239.900 115.461,241.000 115.951 C 244.893 117.685,249.111 120.504,250.444 122.260 C 250.970 122.953,251.940 123.893,252.600 124.348 C 256.558 127.079,265.672 137.476,266.559 140.272 C 266.709 140.742,267.094 141.346,267.415 141.613 C 267.737 141.880,268.004 142.391,268.009 142.749 C 268.014 143.107,268.370 143.850,268.800 144.400 C 269.230 144.950,269.587 145.760,269.593 146.200 C 269.598 146.640,269.962 147.589,270.401 148.310 C 270.841 149.030,271.200 149.937,271.200 150.325 C 271.200 150.713,271.532 151.681,271.937 152.477 C 272.420 153.424,272.761 155.249,272.927 157.768 C 273.287 163.256,273.237 163.200,277.814 163.200 C 279.896 163.200,283.265 163.515,285.300 163.900 C 290.805 164.942,335.819 164.929,340.400 163.885 C 344.595 162.928,344.728 162.958,347.300 165.408 L 349.600 167.599 349.600 171.812 C 349.600 175.479,349.509 176.052,348.900 176.233 C 348.515 176.347,347.690 176.702,347.068 177.020 C 346.445 177.339,344.927 177.600,343.694 177.600 C 342.322 177.600,340.821 177.896,339.826 178.364 C 338.932 178.784,337.120 179.198,335.800 179.283 C 334.480 179.369,332.787 179.745,332.039 180.119 C 331.290 180.494,329.760 180.804,328.639 180.809 C 327.480 180.814,325.848 181.159,324.856 181.609 C 323.897 182.044,322.637 182.402,322.056 182.405 C 316.956 182.428,310.400 186.693,310.400 189.988 C 310.400 190.450,310.085 191.309,309.700 191.896 C 308.613 193.556,308.613 371.047,309.700 373.161 C 310.085 373.910,310.400 374.923,310.400 375.412 C 310.400 376.664,313.456 379.197,314.969 379.199 C 315.611 379.199,316.465 379.497,316.866 379.860 C 317.359 380.306,318.600 380.584,320.698 380.718 C 322.407 380.827,324.199 381.177,324.689 381.497 C 325.178 381.816,326.978 382.235,328.689 382.427 C 332.923 382.902,339.133 383.834,341.603 384.363 C 342.723 384.604,344.449 384.800,345.440 384.800 C 346.430 384.800,347.771 385.075,348.420 385.410 L 349.600 386.021 349.594 390.710 L 349.588 395.400 347.394 397.363 C 344.878 399.614,344.733 400.000,346.400 400.000 C 347.100 400.000,347.600 399.789,347.600 399.495 C 347.600 399.217,347.990 398.812,348.467 398.595 C 348.944 398.378,349.529 397.850,349.767 397.422 C 350.005 396.994,350.515 396.285,350.900 395.846 C 351.938 394.665,351.938 385.995,350.900 385.162 C 349.486 384.026,348.374 383.600,346.829 383.600 C 345.959 383.600,345.136 383.420,345.000 383.200 C 344.864 382.980,343.244 382.800,341.400 382.800 C 339.556 382.800,337.936 382.620,337.800 382.400 C 337.664 382.180,336.674 382.000,335.600 382.000 C 334.526 382.000,333.536 381.820,333.400 381.600 C 333.264 381.380,332.274 381.200,331.200 381.200 C 330.126 381.200,329.136 381.020,329.000 380.800 C 328.864 380.580,328.054 380.400,327.200 380.400 C 326.346 380.400,325.536 380.220,325.400 380.000 C 325.264 379.780,324.184 379.600,323.000 379.600 C 321.816 379.600,320.736 379.420,320.600 379.200 C 320.464 378.980,319.744 378.800,319.000 378.800 C 318.256 378.800,317.536 378.620,317.400 378.400 C 317.264 378.180,316.623 378.000,315.976 378.000 C 315.329 378.000,314.800 377.850,314.800 377.668 C 314.800 377.485,314.305 377.080,313.700 376.768 C 312.157 375.971,311.627 375.199,311.613 373.724 C 311.606 373.022,311.420 372.336,311.200 372.200 C 310.935 372.036,310.800 341.870,310.800 283.000 C 310.800 224.130,310.935 193.964,311.200 193.800 C 311.420 193.664,311.600 192.939,311.600 192.189 C 311.600 187.988,317.478 183.600,323.105 183.600 C 324.011 183.600,324.864 183.420,325.000 183.200 C 325.136 182.980,325.946 182.800,326.800 182.800 C 327.654 182.800,328.464 182.620,328.600 182.400 C 328.736 182.180,329.827 182.000,331.024 182.000 C 332.221 182.000,333.200 181.820,333.200 181.600 C 333.200 181.380,333.909 181.200,334.776 181.200 C 335.643 181.200,336.464 181.020,336.600 180.800 C 336.736 180.580,337.906 180.400,339.200 180.400 C 340.494 180.400,341.664 180.220,341.800 180.000 C 341.936 179.780,342.746 179.600,343.600 179.600 C 344.454 179.600,345.264 179.420,345.400 179.200 C 345.536 178.980,346.509 178.800,347.562 178.800 C 349.520 178.800,349.987 178.498,351.100 176.505 C 351.703 175.427,351.786 168.162,351.200 167.800 C 350.980 167.664,350.800 167.142,350.800 166.640 C 350.800 166.111,350.065 164.949,349.052 163.876 L 347.303 162.026 312.265 162.024 C 273.313 162.023,275.600 162.191,275.600 159.327 C 275.600 158.403,275.420 157.536,275.200 157.400 C 274.980 157.264,274.800 156.634,274.800 156.000 C 274.800 155.366,274.620 154.736,274.400 154.600 C 274.180 154.464,274.000 153.553,274.000 152.576 C 274.000 151.599,273.820 150.800,273.600 150.800 C 273.380 150.800,273.200 150.440,273.200 150.000 C 273.200 149.560,273.020 149.200,272.800 149.200 C 272.580 149.200,272.400 148.761,272.400 148.224 C 272.400 147.687,272.220 147.136,272.000 147.000 C 271.780 146.864,271.600 146.403,271.600 145.976 C 271.600 145.549,271.420 145.200,271.200 145.200 C 270.980 145.200,270.796 144.795,270.791 144.300 C 270.786 143.805,270.430 142.950,270.000 142.400 C 269.570 141.850,269.214 141.175,269.209 140.900 C 269.204 140.625,269.020 140.400,268.800 140.400 C 268.580 140.400,268.400 140.040,268.400 139.600 C 268.400 139.160,268.220 138.800,268.000 138.800 C 267.780 138.800,267.600 138.564,267.600 138.275 C 267.600 137.987,267.285 137.402,266.900 136.975 C 266.515 136.549,265.945 135.705,265.632 135.100 C 265.320 134.495,264.915 134.000,264.732 134.000 C 264.550 134.000,264.400 133.752,264.400 133.449 C 264.400 132.849,253.879 122.000,253.297 122.000 C 253.102 122.000,251.978 121.100,250.800 120.000 C 249.622 118.900,248.420 118.000,248.129 118.000 C 247.838 118.000,247.600 117.847,247.600 117.660 C 247.600 117.473,246.385 116.711,244.900 115.968 C 243.415 115.224,242.110 114.522,242.000 114.407 C 241.890 114.293,241.305 113.944,240.700 113.632 C 240.095 113.320,239.600 112.915,239.600 112.732 C 239.600 112.550,239.240 112.400,238.800 112.400 C 238.360 112.400,238.000 112.220,238.000 112.000 C 238.000 111.780,237.764 111.600,237.475 111.600 C 237.187 111.600,236.564 111.240,236.092 110.800 C 235.620 110.360,234.956 110.000,234.617 110.000 C 234.278 110.000,234.000 109.820,234.000 109.600 C 234.000 109.380,233.640 109.200,233.200 109.200 C 232.760 109.200,232.399 109.065,232.397 108.900 C 232.395 108.735,231.990 108.399,231.497 108.154 C 228.150 106.491,225.380 104.955,225.267 104.700 C 225.193 104.535,224.788 104.400,224.367 104.400 C 223.945 104.400,223.600 104.220,223.600 104.000 C 223.600 103.780,223.255 103.600,222.833 103.600 C 222.412 103.600,222.007 103.465,221.933 103.300 C 221.766 102.924,219.636 101.625,218.700 101.329 C 218.315 101.207,218.000 100.948,218.000 100.753 C 218.000 100.559,217.655 100.400,217.233 100.400 C 216.812 100.400,216.407 100.264,216.333 100.098 C 216.260 99.932,214.985 99.185,213.500 98.438 C 212.015 97.691,210.800 96.927,210.800 96.740 C 210.800 96.553,210.440 96.400,210.000 96.400 C 209.560 96.400,209.200 96.220,209.200 96.000 C 209.200 95.780,208.840 95.600,208.400 95.600 C 207.960 95.600,207.600 95.420,207.600 95.200 C 207.600 94.980,207.240 94.800,206.800 94.800 C 206.360 94.800,206.000 94.620,206.000 94.400 C 206.000 94.180,205.640 94.000,205.200 94.000 C 204.760 94.000,204.400 93.820,204.400 93.600 C 204.400 93.380,204.055 93.200,203.633 93.200 C 203.212 93.200,202.807 93.065,202.733 92.900 C 202.660 92.735,201.745 92.167,200.700 91.637 C 199.655 91.108,198.800 90.523,198.800 90.337 C 198.800 90.152,198.566 90.000,198.280 90.000 C 197.544 90.000,195.607 89.059,195.603 88.700 C 195.601 88.535,195.240 88.400,194.800 88.400 C 194.360 88.400,194.000 88.220,194.000 88.000 C 194.000 87.780,193.640 87.600,193.200 87.600 C 192.760 87.600,192.400 87.447,192.400 87.260 C 192.400 87.073,191.185 86.309,189.700 85.562 C 188.215 84.815,186.940 84.068,186.867 83.902 C 186.793 83.736,186.388 83.600,185.967 83.600 C 185.545 83.600,185.200 83.420,185.200 83.200 C 185.200 82.980,184.840 82.800,184.400 82.800 C 183.960 82.800,183.600 82.620,183.600 82.400 C 183.600 82.180,183.280 82.000,182.888 82.000 C 182.497 82.000,181.917 81.640,181.600 81.200 C 181.283 80.760,180.743 80.400,180.400 80.400 C 180.057 80.400,179.517 80.040,179.200 79.600 C 178.883 79.160,178.386 78.800,178.095 78.800 C 177.804 78.800,177.180 78.440,176.708 78.000 C 176.236 77.560,175.613 77.200,175.325 77.200 C 175.036 77.200,174.800 77.020,174.800 76.800 C 174.800 76.580,174.575 76.400,174.300 76.399 C 174.025 76.399,173.170 75.859,172.400 75.200 C 171.630 74.541,170.863 74.001,170.696 74.001 C 170.529 74.000,169.828 73.460,169.137 72.800 C 168.446 72.140,167.718 71.600,167.518 71.600 C 166.925 71.600,159.600 63.984,159.600 63.367 C 159.600 63.055,159.448 62.800,159.263 62.800 C 159.077 62.800,158.518 61.945,158.019 60.900 C 157.520 59.855,156.952 58.687,156.756 58.305 C 156.560 57.923,156.400 56.899,156.400 56.029 C 156.400 55.159,156.220 54.336,156.000 54.200 C 155.780 54.064,155.600 52.523,155.600 50.776 C 155.600 48.925,155.767 47.600,156.000 47.600 C 156.220 47.600,156.400 46.891,156.400 46.024 C 156.400 45.157,156.580 44.336,156.800 44.200 C 157.020 44.064,157.200 43.620,157.200 43.214 C 157.200 42.808,157.583 41.694,158.050 40.738 C 158.518 39.782,159.030 38.730,159.188 38.400 C 159.955 36.798,160.726 35.688,162.096 34.212 C 162.918 33.325,163.593 32.452,163.596 32.271 C 163.602 31.807,164.417 31.094,165.700 30.432 C 166.305 30.120,166.800 29.722,166.800 29.547 C 166.800 29.166,171.391 26.000,171.945 26.000 C 172.158 26.000,172.393 25.863,172.467 25.696 C 172.675 25.223,179.318 21.993,180.076 21.997 C 180.448 21.999,180.864 21.820,181.000 21.600 C 181.136 21.380,181.597 21.200,182.024 21.200 C 182.451 21.200,182.800 21.020,182.800 20.800 C 182.800 20.580,183.419 20.400,184.176 20.400 C 184.933 20.400,185.652 20.239,185.774 20.042 C 186.321 19.157,200.529 18.369,201.339 19.179 C 201.570 19.410,202.894 19.600,204.280 19.600 C 205.693 19.600,206.800 19.776,206.800 20.000 C 206.800 20.220,207.702 20.400,208.805 20.400 C 209.908 20.400,211.168 20.580,211.605 20.800 C 212.042 21.020,212.758 21.380,213.195 21.600 C 213.632 21.820,214.352 22.000,214.795 22.000 C 215.238 22.000,215.600 22.180,215.600 22.400 C 215.600 22.620,215.836 22.800,216.125 22.800 C 216.413 22.800,217.036 23.160,217.508 23.600 C 217.980 24.040,218.644 24.400,218.983 24.400 C 219.322 24.400,219.600 24.550,219.600 24.732 C 219.600 24.915,220.095 25.320,220.700 25.632 C 221.305 25.945,222.340 26.694,223.000 27.298 C 223.660 27.902,224.339 28.397,224.509 28.398 C 224.906 28.401,229.196 32.683,229.211 33.091 C 229.218 33.261,229.938 34.203,230.811 35.186 C 231.685 36.168,232.400 37.203,232.400 37.486 C 232.400 37.768,232.580 38.000,232.800 38.000 C 233.020 38.000,233.200 38.236,233.200 38.525 C 233.200 38.813,233.560 39.436,234.000 39.908 C 234.440 40.380,234.800 41.044,234.800 41.383 C 234.800 41.722,234.980 42.000,235.200 42.000 C 235.420 42.000,235.600 42.360,235.600 42.800 C 235.600 43.240,235.780 43.600,236.000 43.600 C 236.220 43.600,236.400 43.960,236.400 44.400 C 236.400 44.840,236.580 45.200,236.800 45.200 C 237.020 45.200,237.200 45.560,237.200 46.000 C 237.200 46.440,237.380 46.800,237.600 46.800 C 237.820 46.800,238.000 47.160,238.000 47.600 C 238.000 48.040,238.180 48.400,238.400 48.400 C 238.620 48.400,238.800 48.672,238.800 49.005 C 238.800 49.593,238.967 50.018,239.938 51.895 C 240.192 52.387,240.400 53.242,240.400 53.795 C 240.400 54.348,240.580 54.800,240.800 54.800 C 241.020 54.800,241.200 55.340,241.200 56.000 C 241.200 56.660,241.380 57.200,241.600 57.200 C 241.820 57.200,242.000 57.999,242.000 58.976 C 242.000 59.953,242.180 60.864,242.400 61.000 C 242.620 61.136,242.800 61.957,242.800 62.824 C 242.800 63.691,242.980 64.400,243.200 64.400 C 243.420 64.400,243.601 64.715,243.603 65.100 C 243.612 67.106,255.910 67.727,257.818 65.818 L 258.800 64.836 258.800 52.098 C 258.800 44.531,258.955 39.205,259.182 38.978 C 259.403 38.757,259.599 33.988,259.646 27.733 C 259.730 16.566,259.606 15.600,258.088 15.600 C 257.885 15.600,257.154 15.060,256.463 14.400 C 255.772 13.740,255.018 13.200,254.787 13.200 C 254.556 13.200,253.980 12.840,253.508 12.400 C 253.036 11.960,252.413 11.600,252.125 11.600 C 251.836 11.600,251.600 11.462,251.600 11.294 C 251.600 11.126,250.880 10.544,250.000 10.000 C 249.120 9.456,248.400 8.874,248.400 8.706 C 248.400 8.538,248.147 8.400,247.838 8.400 C 247.172 8.400,243.859 6.732,243.667 6.300 C 243.593 6.135,243.199 6.000,242.790 6.000 C 242.382 6.000,241.936 5.820,241.800 5.600 C 241.664 5.380,241.113 5.200,240.576 5.200 C 240.039 5.200,239.600 5.020,239.600 4.800 C 239.600 4.580,239.251 4.400,238.824 4.400 C 238.397 4.400,237.936 4.220,237.800 4.000 C 237.664 3.780,237.124 3.600,236.600 3.600 C 236.076 3.600,235.536 3.420,235.400 3.200 C 235.264 2.980,234.724 2.800,234.200 2.800 C 233.676 2.800,233.136 2.620,233.000 2.400 C 232.864 2.180,232.234 2.000,231.600 2.000 C 230.966 2.000,230.336 1.820,230.200 1.600 C 230.064 1.380,229.438 1.200,228.810 1.200 C 228.181 1.200,227.603 1.010,227.526 0.777 C 227.267 0.001,218.400 -0.243,218.400 0.526 M104.397 206.300 C 103.554 209.209,104.044 373.197,104.900 374.504 C 105.285 375.091,105.600 375.993,105.600 376.508 C 105.600 379.511,109.571 382.400,113.698 382.400 C 115.433 382.400,117.203 382.588,117.632 382.817 C 118.061 383.047,121.604 383.405,125.506 383.614 C 129.408 383.823,133.860 384.169,135.400 384.384 C 136.940 384.598,139.838 384.780,141.840 384.787 C 148.227 384.810,148.574 385.152,148.340 391.205 L 148.200 394.834 145.700 397.169 C 144.325 398.453,143.200 399.615,143.200 399.752 C 143.200 400.516,145.310 399.807,146.628 398.600 C 147.469 397.830,148.391 397.200,148.678 397.200 C 148.965 397.200,149.200 396.840,149.200 396.400 C 149.200 395.960,149.357 395.600,149.548 395.600 C 149.872 395.600,150.285 393.575,150.589 390.498 C 150.660 389.782,150.556 389.097,150.359 388.975 C 150.162 388.853,150.000 387.838,150.000 386.720 C 150.000 383.916,149.512 383.628,144.724 383.613 C 142.585 383.606,140.736 383.421,140.600 383.200 C 140.452 382.961,137.823 382.800,134.056 382.800 C 130.593 382.800,127.589 382.632,127.380 382.427 C 127.171 382.222,125.380 381.954,123.400 381.831 C 113.855 381.240,112.574 381.118,112.220 380.772 C 112.011 380.567,111.510 380.400,111.107 380.400 C 109.443 380.400,106.800 376.770,106.800 374.485 C 106.800 373.646,106.589 372.749,106.330 372.490 C 105.852 372.012,105.674 209.793,106.151 209.315 C 106.561 208.906,107.600 210.357,107.600 211.338 C 107.600 211.885,107.737 212.393,107.905 212.467 C 108.314 212.645,112.406 220.865,112.403 221.500 C 112.401 221.775,112.580 222.000,112.800 222.000 C 113.020 222.000,113.200 222.360,113.200 222.800 C 113.200 223.240,113.380 223.600,113.600 223.600 C 113.820 223.600,114.000 224.039,114.000 224.576 C 114.000 225.113,114.180 225.664,114.400 225.800 C 114.620 225.936,114.800 226.397,114.800 226.824 C 114.800 227.251,114.980 227.600,115.200 227.600 C 115.420 227.600,115.600 228.129,115.600 228.776 C 115.600 229.423,115.780 230.064,116.000 230.200 C 116.220 230.336,116.400 230.966,116.400 231.600 C 116.400 232.234,116.580 232.864,116.800 233.000 C 117.020 233.136,117.200 233.597,117.200 234.024 C 117.200 234.451,117.335 234.801,117.500 234.803 C 117.859 234.807,118.800 236.744,118.800 237.480 C 118.800 237.766,118.980 238.000,119.200 238.000 C 119.420 238.000,119.600 238.540,119.600 239.200 C 119.600 239.860,119.735 240.401,119.900 240.403 C 120.259 240.407,121.200 242.344,121.200 243.080 C 121.200 243.366,121.380 243.600,121.600 243.600 C 121.820 243.600,122.000 243.960,122.000 244.400 C 122.000 244.840,122.180 245.200,122.400 245.200 C 122.620 245.200,122.800 245.560,122.800 246.000 C 122.800 246.440,122.980 246.800,123.200 246.800 C 123.420 246.800,123.600 247.160,123.600 247.600 C 123.600 248.040,123.780 248.400,124.000 248.400 C 124.220 248.400,124.400 248.760,124.400 249.200 C 124.400 249.640,124.580 250.000,124.800 250.000 C 125.020 250.000,125.200 250.360,125.200 250.800 C 125.200 251.240,125.380 251.600,125.600 251.600 C 125.820 251.600,126.000 251.960,126.000 252.400 C 126.000 252.840,126.180 253.200,126.400 253.200 C 126.620 253.200,126.800 253.639,126.800 254.176 C 126.800 254.713,126.980 255.264,127.200 255.400 C 127.420 255.536,127.600 255.997,127.600 256.424 C 127.600 256.851,127.735 257.201,127.900 257.203 C 128.259 257.207,129.200 259.144,129.200 259.880 C 129.200 260.166,129.380 260.400,129.600 260.400 C 129.820 260.400,130.000 260.760,130.000 261.200 C 130.000 261.640,130.180 262.000,130.400 262.000 C 130.620 262.000,130.800 262.253,130.800 262.562 C 130.800 262.871,131.184 263.906,131.653 264.862 C 133.716 269.063,134.000 269.701,133.997 270.138 C 133.995 270.392,134.736 272.130,135.645 274.000 C 136.553 275.870,137.433 277.760,137.601 278.200 C 137.768 278.640,138.828 280.890,139.956 283.200 C 141.083 285.510,142.004 287.625,142.003 287.900 C 142.001 288.175,142.180 288.400,142.400 288.400 C 142.620 288.400,142.800 288.760,142.800 289.200 C 142.800 289.640,142.980 290.000,143.200 290.000 C 143.420 290.000,143.600 290.349,143.600 290.776 C 143.600 291.203,143.780 291.664,144.000 291.800 C 144.220 291.936,144.400 292.487,144.400 293.024 C 144.400 293.561,144.580 294.000,144.800 294.000 C 145.020 294.000,145.200 294.360,145.200 294.800 C 145.200 295.240,145.380 295.600,145.600 295.600 C 145.820 295.600,146.000 295.960,146.000 296.400 C 146.000 296.840,146.180 297.200,146.400 297.200 C 146.620 297.200,146.800 297.472,146.800 297.805 C 146.800 298.138,146.957 298.723,147.150 299.105 C 148.651 302.084,149.200 303.354,149.200 303.843 C 149.200 304.155,149.359 304.723,149.553 305.105 C 149.748 305.487,150.085 306.250,150.303 306.800 C 150.520 307.350,151.104 308.700,151.600 309.800 C 152.096 310.900,152.680 312.250,152.897 312.800 C 153.115 313.350,153.452 314.113,153.647 314.495 C 153.841 314.877,154.000 315.447,154.000 315.761 C 154.000 316.076,154.135 316.393,154.300 316.467 C 154.732 316.659,156.400 319.972,156.400 320.638 C 156.400 320.947,156.580 321.200,156.800 321.200 C 157.020 321.200,157.200 321.549,157.200 321.976 C 157.200 322.403,157.380 322.864,157.600 323.000 C 157.820 323.136,158.000 323.687,158.000 324.224 C 158.000 324.761,158.135 325.201,158.300 325.203 C 158.659 325.207,159.600 327.144,159.600 327.880 C 159.600 328.166,159.780 328.400,160.000 328.400 C 160.220 328.400,160.400 328.749,160.400 329.176 C 160.400 329.603,160.580 330.064,160.800 330.200 C 161.020 330.336,161.200 330.887,161.200 331.424 C 161.200 331.961,161.335 332.401,161.500 332.403 C 161.859 332.407,162.800 334.344,162.800 335.080 C 162.800 335.366,162.980 335.600,163.200 335.600 C 163.420 335.600,163.600 336.039,163.600 336.576 C 163.600 337.113,163.780 337.664,164.000 337.800 C 164.220 337.936,164.400 338.382,164.400 338.790 C 164.400 339.199,164.535 339.593,164.700 339.667 C 164.865 339.740,165.425 340.700,165.944 341.800 C 166.463 342.900,167.048 344.113,167.244 344.495 C 167.440 344.877,167.600 345.552,167.600 345.995 C 167.600 346.438,167.780 346.800,168.000 346.800 C 168.220 346.800,168.400 347.160,168.400 347.600 C 168.400 348.040,168.580 348.400,168.800 348.400 C 169.020 348.400,169.200 348.760,169.200 349.200 C 169.200 349.640,169.380 350.000,169.600 350.000 C 169.820 350.000,170.000 350.360,170.000 350.800 C 170.000 351.240,170.180 351.600,170.400 351.600 C 170.620 351.600,170.800 351.960,170.800 352.400 C 170.800 352.840,170.980 353.200,171.200 353.200 C 171.420 353.200,171.600 353.472,171.600 353.805 C 171.600 354.138,171.759 354.723,171.954 355.105 C 173.628 358.388,174.800 361.004,174.800 361.456 C 174.800 361.755,174.980 362.000,175.200 362.000 C 175.420 362.000,175.600 362.360,175.600 362.800 C 175.600 363.240,175.780 363.600,176.000 363.600 C 176.220 363.600,176.400 363.942,176.400 364.359 C 176.400 364.777,176.940 366.145,177.600 367.400 C 178.260 368.655,178.800 369.933,178.800 370.241 C 178.800 370.548,178.980 370.800,179.200 370.800 C 179.420 370.800,179.600 371.155,179.600 371.588 C 179.600 372.021,179.960 373.017,180.400 373.800 C 180.840 374.583,181.200 375.489,181.200 375.812 C 181.200 376.135,181.380 376.400,181.600 376.400 C 181.820 376.400,182.000 376.760,182.000 377.200 C 182.000 377.640,182.180 378.000,182.400 378.000 C 182.620 378.000,182.800 378.540,182.800 379.200 C 182.800 379.860,182.980 380.400,183.200 380.400 C 183.420 380.400,183.600 380.755,183.600 381.188 C 183.600 381.621,183.960 382.617,184.400 383.400 C 184.840 384.183,185.200 385.064,185.200 385.356 C 185.200 385.798,186.384 388.435,188.046 391.695 C 188.241 392.077,188.400 392.752,188.400 393.195 C 188.400 393.638,188.580 394.000,188.800 394.000 C 189.020 394.000,189.200 394.360,189.200 394.800 C 189.200 395.240,189.380 395.600,189.600 395.600 C 189.820 395.600,190.000 395.960,190.000 396.400 C 190.000 396.840,190.159 397.200,190.353 397.200 C 190.548 397.200,190.795 397.537,190.902 397.948 C 191.336 399.605,200.784 399.348,201.656 397.656 C 201.955 397.075,202.515 396.251,202.900 395.825 C 203.285 395.398,203.600 394.631,203.600 394.119 C 203.600 393.608,203.780 392.832,204.000 392.395 C 204.220 391.958,204.580 391.242,204.800 390.805 C 205.020 390.368,205.200 389.774,205.200 389.485 C 205.200 388.745,206.139 386.807,206.500 386.803 C 206.665 386.801,206.800 386.260,206.800 385.600 C 206.800 384.940,206.980 384.400,207.200 384.400 C 207.420 384.400,207.600 384.218,207.600 383.996 C 207.600 383.773,207.978 382.738,208.440 381.696 C 208.902 380.653,209.418 379.440,209.587 379.000 C 209.756 378.560,210.458 377.050,211.147 375.644 C 211.836 374.238,212.400 372.848,212.400 372.556 C 212.400 372.264,212.760 371.383,213.200 370.600 C 213.640 369.817,214.000 368.909,214.000 368.582 C 214.000 368.256,214.159 367.677,214.353 367.295 C 214.548 366.913,214.929 366.060,215.200 365.400 C 215.471 364.740,215.852 363.887,216.047 363.505 C 216.241 363.123,216.400 362.448,216.400 362.005 C 216.400 361.562,216.580 361.200,216.800 361.200 C 217.020 361.200,217.200 360.658,217.200 359.995 C 217.200 359.332,217.380 358.432,217.600 357.995 C 217.820 357.558,218.180 356.842,218.400 356.405 C 218.620 355.968,218.800 355.336,218.800 355.000 C 218.800 354.664,218.959 354.077,219.153 353.695 C 219.348 353.313,219.685 352.550,219.903 352.000 C 220.120 351.450,220.704 350.100,221.200 349.000 C 222.050 347.115,222.310 346.485,223.143 344.300 C 223.332 343.805,223.872 342.618,224.343 341.662 C 224.814 340.706,225.200 339.677,225.200 339.374 C 225.200 339.072,225.560 338.183,226.000 337.400 C 226.440 336.617,226.800 335.728,226.800 335.426 C 226.800 335.123,227.186 334.094,227.657 333.138 C 228.128 332.182,228.689 330.950,228.903 330.400 C 229.118 329.850,229.452 329.087,229.647 328.705 C 229.841 328.323,230.000 327.738,230.000 327.405 C 230.000 327.072,230.180 326.800,230.400 326.800 C 230.620 326.800,230.800 326.438,230.800 325.995 C 230.800 325.552,230.957 324.877,231.150 324.495 C 232.631 321.554,233.200 320.252,233.200 319.800 C 233.200 319.512,233.586 318.494,234.057 317.538 C 234.528 316.582,235.068 315.395,235.257 314.900 C 236.090 312.715,236.350 312.085,237.200 310.200 C 237.696 309.100,238.259 307.795,238.451 307.300 C 238.643 306.805,239.004 305.905,239.254 305.300 C 239.831 303.900,240.412 302.446,240.854 301.300 C 241.044 300.805,241.380 299.950,241.600 299.400 C 241.820 298.850,242.156 297.995,242.347 297.500 C 242.538 297.005,243.258 295.450,243.947 294.044 C 244.636 292.638,245.200 291.248,245.200 290.956 C 245.200 290.664,245.560 289.783,246.000 289.000 C 246.440 288.217,246.800 287.339,246.800 287.049 C 246.800 286.760,247.109 285.910,247.486 285.161 C 247.863 284.413,248.209 283.561,248.255 283.269 C 248.301 282.977,248.658 282.077,249.049 281.269 C 249.439 280.461,249.818 279.444,249.891 279.009 C 249.964 278.573,250.198 278.042,250.411 277.829 C 250.625 277.615,250.800 276.947,250.800 276.344 C 250.800 275.741,250.980 275.136,251.200 275.000 C 251.420 274.864,251.600 274.397,251.600 273.962 C 251.600 273.528,251.908 272.702,252.284 272.127 C 252.661 271.553,253.026 270.704,253.096 270.242 C 253.166 269.779,253.398 269.340,253.612 269.267 C 253.825 269.193,254.000 268.709,254.000 268.190 C 254.000 267.672,254.180 267.136,254.400 267.000 C 254.620 266.864,254.800 266.403,254.800 265.976 C 254.800 265.549,254.980 265.200,255.200 265.200 C 255.420 265.200,255.600 264.838,255.600 264.395 C 255.600 263.952,255.768 263.277,255.974 262.895 C 256.179 262.513,256.583 261.615,256.871 260.900 C 257.160 260.185,257.531 259.600,257.698 259.600 C 257.864 259.600,258.000 259.060,258.000 258.400 C 258.000 257.740,258.180 257.200,258.400 257.200 C 258.620 257.200,258.800 256.851,258.800 256.424 C 258.800 255.997,258.980 255.536,259.200 255.400 C 259.420 255.264,259.600 254.713,259.600 254.176 C 259.600 253.639,259.780 253.200,260.000 253.200 C 260.220 253.200,260.400 252.840,260.400 252.400 C 260.400 251.960,260.580 251.600,260.800 251.600 C 261.020 251.600,261.200 251.335,261.200 251.012 C 261.200 250.689,261.560 249.783,262.000 249.000 C 262.440 248.217,262.800 247.317,262.800 247.000 C 262.800 246.683,263.160 245.783,263.600 245.000 C 264.040 244.217,264.400 243.221,264.400 242.788 C 264.400 242.355,264.536 242.000,264.702 242.000 C 264.869 242.000,265.240 241.415,265.529 240.700 C 265.817 239.985,266.221 239.087,266.426 238.705 C 266.632 238.323,266.800 237.648,266.800 237.205 C 266.800 236.762,266.980 236.400,267.200 236.400 C 267.420 236.400,267.600 236.166,267.600 235.880 C 267.600 235.144,268.541 233.207,268.900 233.203 C 269.065 233.201,269.200 232.660,269.200 232.000 C 269.200 231.340,269.380 230.800,269.600 230.800 C 269.820 230.800,270.000 230.451,270.000 230.024 C 270.000 229.597,270.180 229.136,270.400 229.000 C 270.620 228.864,270.800 228.313,270.800 227.776 C 270.800 227.239,270.980 226.800,271.200 226.800 C 271.465 226.800,271.600 251.592,271.600 300.376 C 271.600 348.996,271.464 374.037,271.200 374.200 C 270.980 374.336,270.800 374.805,270.800 375.242 C 270.800 376.183,269.099 378.000,268.218 378.000 C 267.878 378.000,267.600 378.180,267.600 378.400 C 267.600 378.620,267.251 378.800,266.824 378.800 C 266.397 378.800,265.936 378.980,265.800 379.200 C 265.664 379.420,264.854 379.600,264.000 379.600 C 263.146 379.600,262.336 379.780,262.200 380.000 C 262.064 380.220,261.344 380.400,260.600 380.400 C 259.856 380.400,259.136 380.580,259.000 380.800 C 258.864 381.020,257.694 381.200,256.400 381.200 C 255.106 381.200,253.936 381.380,253.800 381.600 C 253.664 381.820,252.764 382.000,251.800 382.000 C 250.836 382.000,249.936 382.180,249.800 382.400 C 249.664 382.620,248.314 382.800,246.800 382.800 C 245.286 382.800,243.936 382.980,243.800 383.200 C 243.664 383.420,242.598 383.600,241.431 383.600 C 237.828 383.600,237.200 384.588,237.200 390.255 C 237.200 393.018,237.357 394.800,237.600 394.800 C 237.820 394.800,238.000 395.033,238.000 395.319 C 238.000 395.967,240.862 398.800,241.517 398.800 C 241.783 398.800,242.000 399.070,242.000 399.400 C 242.000 399.819,242.422 400.000,243.400 400.000 C 245.219 400.000,245.223 400.011,242.300 397.231 L 239.800 394.852 239.664 390.655 L 239.529 386.457 240.864 385.744 C 241.599 385.351,243.370 384.915,244.800 384.775 C 247.626 384.498,252.232 383.794,255.400 383.156 C 256.500 382.934,258.783 382.602,260.472 382.418 C 262.162 382.234,263.957 381.795,264.461 381.442 C 264.966 381.089,265.944 380.800,266.635 380.800 C 267.326 380.800,268.350 380.440,268.909 380.000 C 269.469 379.560,270.107 379.200,270.328 379.200 C 271.378 379.200,272.800 376.716,272.806 374.869 C 272.809 373.841,273.071 372.280,273.388 371.400 C 274.204 369.135,274.298 223.760,273.484 222.647 C 272.459 221.245,269.600 223.754,269.600 226.056 C 269.600 226.506,269.240 227.331,268.800 227.891 C 268.360 228.450,268.000 229.239,268.000 229.644 C 268.000 230.049,267.641 230.970,267.201 231.690 C 266.762 232.411,266.402 233.418,266.401 233.929 C 266.401 234.439,266.130 235.127,265.801 235.457 C 265.471 235.786,265.097 236.538,264.971 237.128 C 264.844 237.718,264.393 238.855,263.970 239.654 C 263.546 240.454,263.200 241.395,263.200 241.745 C 263.200 242.095,262.841 242.970,262.401 243.690 C 261.962 244.411,261.602 245.383,261.601 245.851 C 261.601 246.319,261.348 246.911,261.039 247.167 C 260.731 247.423,260.360 248.106,260.214 248.685 C 260.069 249.263,259.602 250.180,259.175 250.722 C 258.749 251.264,258.400 252.150,258.400 252.691 C 258.400 253.231,258.040 254.131,257.600 254.691 C 257.160 255.250,256.799 256.089,256.797 256.554 C 256.796 257.019,256.437 257.940,256.000 258.600 C 255.563 259.260,255.204 260.222,255.203 260.737 C 255.201 261.252,254.840 262.131,254.400 262.691 C 253.960 263.250,253.600 264.150,253.600 264.691 C 253.600 265.231,253.240 266.131,252.800 266.691 C 252.360 267.250,252.000 268.224,252.000 268.854 C 252.000 269.484,251.849 270.000,251.664 270.000 C 251.151 270.000,250.400 271.897,250.400 273.195 C 250.400 273.832,250.201 274.476,249.957 274.627 C 249.689 274.792,249.606 275.478,249.747 276.360 C 249.935 277.534,249.827 277.916,249.195 278.310 C 248.730 278.601,248.306 279.447,248.156 280.382 C 248.017 281.252,247.565 282.269,247.152 282.644 C 246.738 283.018,246.400 283.634,246.400 284.013 C 246.400 284.392,246.135 284.922,245.811 285.191 C 245.486 285.460,245.100 286.337,244.953 287.140 C 244.805 287.943,244.350 289.029,243.942 289.554 C 243.534 290.079,243.200 291.002,243.200 291.605 C 243.200 292.208,242.935 292.922,242.611 293.191 C 242.286 293.460,241.899 294.334,241.749 295.132 C 241.599 295.930,241.145 297.127,240.740 297.792 C 240.335 298.456,240.002 299.332,240.001 299.737 C 240.001 300.142,239.640 300.931,239.200 301.491 C 238.760 302.050,238.400 303.024,238.400 303.654 C 238.400 304.284,238.249 304.800,238.064 304.800 C 237.613 304.800,236.800 306.637,236.800 307.656 C 236.800 308.106,236.440 308.931,236.000 309.491 C 235.560 310.050,235.200 310.946,235.200 311.483 C 235.200 312.019,234.921 312.736,234.580 313.077 C 234.240 313.418,233.859 314.206,233.734 314.828 C 233.610 315.450,233.169 316.266,232.754 316.642 C 232.339 317.017,232.000 317.742,232.000 318.252 C 232.000 318.763,231.641 319.770,231.201 320.490 C 230.762 321.211,230.402 322.111,230.401 322.490 C 230.401 322.870,230.041 323.770,229.601 324.490 C 229.162 325.211,228.802 326.183,228.801 326.651 C 228.801 327.119,228.535 327.722,228.211 327.991 C 227.886 328.260,227.500 329.137,227.353 329.940 C 227.205 330.743,226.750 331.829,226.342 332.354 C 225.934 332.879,225.600 333.750,225.600 334.291 C 225.600 334.831,225.240 335.731,224.800 336.291 C 224.360 336.850,223.999 337.689,223.997 338.154 C 223.996 338.619,223.637 339.540,223.200 340.200 C 222.763 340.860,222.404 341.822,222.403 342.337 C 222.401 342.852,222.040 343.731,221.600 344.291 C 221.160 344.850,220.800 345.602,220.800 345.962 C 220.800 346.322,220.263 347.602,219.607 348.808 C 218.021 351.721,217.600 352.715,217.600 353.546 C 217.600 353.928,217.437 354.411,217.237 354.620 C 217.038 354.829,216.484 356.530,216.006 358.400 C 215.528 360.270,214.792 362.455,214.369 363.254 C 213.946 364.054,213.600 365.067,213.600 365.505 C 213.600 365.944,213.328 366.527,212.996 366.803 C 212.664 367.078,212.282 367.997,212.147 368.844 C 212.011 369.692,211.657 370.586,211.361 370.833 C 211.064 371.079,210.700 371.937,210.553 372.740 C 210.405 373.543,209.950 374.629,209.542 375.154 C 209.134 375.679,208.800 376.439,208.800 376.844 C 208.800 377.249,208.441 378.170,208.001 378.890 C 207.562 379.611,207.202 380.613,207.201 381.117 C 207.201 381.621,206.840 382.420,206.400 382.892 C 205.960 383.364,205.600 383.983,205.600 384.266 C 205.600 384.549,205.241 385.370,204.801 386.090 C 204.362 386.811,203.998 387.760,203.993 388.200 C 203.987 388.640,203.630 389.450,203.200 390.000 C 202.770 390.550,202.414 391.436,202.409 391.969 C 202.404 392.501,202.135 393.230,201.810 393.589 C 201.486 393.947,201.073 394.951,200.893 395.820 L 200.566 397.400 196.720 397.514 L 192.874 397.628 192.037 396.452 C 191.577 395.806,191.200 395.070,191.200 394.817 C 191.200 394.565,190.864 393.693,190.452 392.879 C 189.485 390.964,188.222 388.143,187.597 386.500 C 187.325 385.785,186.945 385.200,186.751 385.200 C 186.558 385.200,186.400 384.897,186.400 384.526 C 186.400 384.155,186.070 383.480,185.666 383.026 C 185.263 382.572,184.536 380.760,184.052 379.000 C 183.567 377.240,183.015 375.440,182.826 375.000 C 182.636 374.560,182.261 373.615,181.992 372.900 C 181.723 372.185,181.345 371.600,181.151 371.600 C 180.958 371.600,180.800 371.174,180.800 370.654 C 180.800 370.134,180.440 369.250,180.000 368.691 C 179.560 368.131,179.200 367.321,179.200 366.891 C 179.200 366.460,178.840 365.650,178.400 365.091 C 177.960 364.531,177.599 363.742,177.599 363.337 C 177.598 362.932,177.238 362.011,176.799 361.290 C 176.359 360.570,176.000 359.739,176.000 359.444 C 176.000 359.149,175.640 358.450,175.200 357.891 C 174.760 357.331,174.400 356.521,174.400 356.091 C 174.400 355.660,174.040 354.850,173.600 354.291 C 173.160 353.731,172.800 352.921,172.800 352.491 C 172.800 352.060,172.465 351.279,172.055 350.754 C 171.645 350.229,171.188 349.411,171.040 348.936 C 170.891 348.461,170.506 347.854,170.185 347.587 C 169.863 347.320,169.600 346.698,169.600 346.205 C 169.600 345.712,169.240 344.850,168.800 344.291 C 168.360 343.731,168.000 342.921,168.000 342.491 C 168.000 342.060,167.640 341.250,167.200 340.691 C 166.760 340.131,166.400 339.321,166.400 338.891 C 166.400 338.460,166.040 337.650,165.600 337.091 C 165.160 336.531,164.800 335.721,164.800 335.291 C 164.800 334.860,164.440 334.050,164.000 333.491 C 163.560 332.931,163.200 332.121,163.200 331.691 C 163.200 331.260,162.840 330.450,162.400 329.891 C 161.960 329.331,161.600 328.521,161.600 328.091 C 161.600 327.660,161.240 326.850,160.800 326.291 C 160.360 325.731,159.999 325.032,159.999 324.737 C 159.998 324.442,159.638 323.611,159.199 322.890 C 158.759 322.170,158.400 321.249,158.400 320.844 C 158.400 320.439,158.040 319.650,157.600 319.091 C 157.160 318.531,156.800 317.785,156.800 317.433 C 156.800 317.081,156.440 316.484,156.000 316.107 C 155.560 315.730,155.200 315.036,155.200 314.565 C 155.200 314.094,154.867 313.279,154.461 312.754 C 154.055 312.229,153.604 311.318,153.460 310.728 C 153.317 310.138,152.929 309.386,152.599 309.057 C 152.270 308.727,151.999 308.129,151.999 307.729 C 151.998 307.328,151.661 306.450,151.251 305.777 C 150.841 305.104,150.409 303.934,150.290 303.177 C 149.898 300.670,149.279 298.751,148.636 298.039 C 148.286 297.653,148.000 296.970,148.000 296.522 C 148.000 296.074,147.640 295.250,147.200 294.691 C 146.760 294.131,146.400 293.321,146.400 292.891 C 146.400 292.460,146.040 291.650,145.600 291.091 C 145.160 290.531,144.800 289.721,144.800 289.291 C 144.800 288.860,144.440 288.050,144.000 287.491 C 143.560 286.931,143.200 286.110,143.200 285.665 C 143.200 285.221,142.912 284.569,142.560 284.217 C 141.721 283.378,140.004 279.979,140.002 279.154 C 140.001 278.799,139.640 278.050,139.200 277.491 C 138.760 276.931,138.400 276.121,138.400 275.691 C 138.400 275.260,138.040 274.450,137.600 273.891 C 137.160 273.331,136.800 272.521,136.800 272.091 C 136.800 271.660,136.440 270.850,136.000 270.291 C 135.560 269.731,135.196 268.942,135.191 268.537 C 135.186 268.132,134.830 267.350,134.400 266.800 C 133.970 266.250,133.613 265.530,133.607 265.200 C 133.602 264.870,133.259 264.045,132.845 263.367 C 132.431 262.688,131.970 261.576,131.821 260.894 C 131.671 260.213,131.290 259.441,130.974 259.179 C 130.658 258.917,130.400 258.298,130.400 257.805 C 130.400 257.312,130.040 256.450,129.600 255.891 C 129.160 255.331,128.799 254.632,128.799 254.337 C 128.798 254.042,128.438 253.211,127.999 252.490 C 127.559 251.770,127.200 250.943,127.200 250.652 C 127.200 250.362,126.840 249.798,126.400 249.400 C 125.960 249.002,125.600 248.278,125.600 247.792 C 125.600 247.306,125.240 246.450,124.800 245.891 C 124.360 245.331,124.000 244.521,124.000 244.091 C 124.000 243.660,123.640 242.850,123.200 242.291 C 122.760 241.731,122.396 240.942,122.391 240.537 C 122.386 240.132,122.030 239.350,121.600 238.800 C 121.170 238.250,120.810 237.440,120.800 237.000 C 120.790 236.560,120.430 235.750,120.000 235.200 C 119.570 234.650,119.214 233.955,119.209 233.654 C 119.204 233.354,118.854 232.454,118.431 231.654 C 117.537 229.964,116.400 226.562,116.400 225.578 C 116.400 225.204,116.130 224.674,115.800 224.400 C 115.470 224.126,115.199 223.519,115.199 223.051 C 115.198 222.583,114.868 221.660,114.466 221.000 C 114.064 220.340,113.621 219.350,113.480 218.800 C 113.340 218.250,112.590 216.839,111.813 215.665 C 111.036 214.491,110.400 213.210,110.400 212.819 C 110.400 212.428,110.040 211.650,109.600 211.091 C 109.160 210.531,108.794 209.742,108.786 209.337 C 108.759 207.934,106.460 204.800,105.458 204.800 C 105.079 204.800,104.661 205.390,104.397 206.300 M245.986 227.500 C 244.568 228.617,243.446 229.319,241.542 230.282 C 240.960 230.576,240.263 231.083,239.993 231.408 C 239.723 231.734,239.198 232.000,238.826 232.000 C 238.455 232.000,237.764 232.360,237.292 232.800 C 236.820 233.240,236.147 233.600,235.796 233.600 C 235.445 233.600,234.493 233.936,233.679 234.348 C 230.361 236.025,228.570 236.802,228.028 236.801 C 227.135 236.799,224.800 237.725,224.800 238.080 C 224.800 238.256,224.047 238.400,223.126 238.400 C 222.206 238.400,220.721 238.741,219.826 239.157 C 218.932 239.574,217.255 240.015,216.100 240.138 C 214.945 240.261,213.415 240.624,212.700 240.944 C 211.916 241.296,209.335 241.632,206.200 241.792 C 203.340 241.938,200.100 242.244,199.000 242.472 C 195.260 243.247,186.858 243.319,183.175 242.607 C 181.319 242.249,177.460 241.859,174.600 241.741 C 171.382 241.609,168.910 241.308,168.115 240.952 C 165.034 239.573,160.285 241.045,162.800 242.600 C 163.020 242.736,163.200 243.262,163.200 243.770 C 163.200 244.277,163.560 245.150,164.000 245.709 C 164.440 246.269,164.800 247.079,164.800 247.509 C 164.800 247.940,165.135 248.721,165.545 249.246 C 165.955 249.771,166.412 250.589,166.560 251.064 C 166.709 251.539,167.094 252.146,167.415 252.413 C 167.737 252.680,168.000 253.302,168.000 253.795 C 168.000 254.288,168.360 255.150,168.800 255.709 C 169.240 256.269,169.600 257.079,169.600 257.509 C 169.600 257.940,169.960 258.750,170.400 259.309 C 170.840 259.869,171.200 260.679,171.200 261.109 C 171.200 261.540,171.560 262.350,172.000 262.909 C 172.440 263.469,172.800 264.279,172.800 264.709 C 172.800 265.140,173.160 265.950,173.600 266.509 C 174.040 267.069,174.400 267.879,174.400 268.309 C 174.400 268.740,174.760 269.550,175.200 270.109 C 175.640 270.669,176.000 271.479,176.000 271.909 C 176.000 272.340,176.360 273.150,176.800 273.709 C 177.240 274.269,177.604 275.058,177.609 275.463 C 177.614 275.868,177.970 276.650,178.400 277.200 C 178.830 277.750,179.187 278.470,179.193 278.800 C 179.198 279.130,179.562 279.989,180.001 280.710 C 180.441 281.430,180.800 282.228,180.800 282.484 C 180.800 282.739,181.126 283.320,181.525 283.774 C 181.924 284.228,182.563 285.680,182.945 287.000 C 183.705 289.628,184.466 291.690,185.637 294.300 C 186.057 295.235,186.782 296.855,187.249 297.900 C 187.715 298.945,188.435 300.466,188.849 301.279 C 189.262 302.093,189.600 303.014,189.600 303.325 C 189.600 303.637,189.960 304.350,190.400 304.909 C 190.840 305.469,191.200 306.279,191.200 306.709 C 191.200 307.140,191.560 307.950,192.000 308.509 C 192.440 309.069,192.800 309.822,192.800 310.184 C 192.800 310.546,193.145 311.507,193.567 312.321 C 193.989 313.134,194.527 314.250,194.764 314.800 C 195.216 315.851,195.700 316.692,196.884 318.484 C 197.278 319.080,197.600 319.911,197.600 320.330 C 197.600 320.749,197.960 321.550,198.400 322.109 C 198.840 322.669,199.200 323.479,199.200 323.909 C 199.200 324.340,199.560 325.150,200.000 325.709 C 200.440 326.269,200.800 327.079,200.800 327.509 C 200.800 327.940,201.160 328.750,201.600 329.309 C 202.040 329.869,202.400 330.598,202.400 330.930 C 202.400 332.439,204.086 334.000,205.716 334.000 C 206.302 334.000,207.200 332.392,207.200 331.344 C 207.200 331.004,207.560 330.269,208.000 329.709 C 208.440 329.150,208.801 328.311,208.803 327.846 C 208.804 327.381,209.163 326.460,209.600 325.800 C 210.037 325.140,210.396 324.178,210.397 323.663 C 210.399 323.148,210.760 322.269,211.200 321.709 C 211.640 321.150,212.000 320.395,212.000 320.031 C 212.000 319.668,212.720 317.987,213.600 316.297 C 214.480 314.607,215.200 312.895,215.200 312.492 C 215.200 312.090,215.372 311.588,215.582 311.378 C 215.911 311.049,216.730 308.217,217.484 304.800 C 217.605 304.250,217.949 303.518,218.247 303.174 C 218.546 302.829,218.911 301.929,219.057 301.174 C 219.204 300.418,219.656 299.371,220.062 298.846 C 220.468 298.321,220.800 297.594,220.800 297.231 C 220.800 296.867,221.160 295.863,221.600 295.000 C 222.040 294.137,222.400 293.203,222.400 292.925 C 222.400 292.647,222.759 291.830,223.199 291.110 C 223.638 290.389,223.998 289.468,223.999 289.063 C 223.999 288.658,224.360 287.869,224.800 287.309 C 225.240 286.750,225.600 285.940,225.600 285.509 C 225.600 285.079,225.960 284.269,226.400 283.709 C 226.840 283.150,227.200 282.340,227.200 281.909 C 227.200 281.479,227.560 280.669,228.000 280.109 C 228.440 279.550,228.800 278.761,228.800 278.356 C 228.800 277.951,229.159 277.030,229.599 276.310 C 230.038 275.589,230.398 274.505,230.399 273.900 C 230.399 273.295,230.551 272.800,230.736 272.800 C 231.169 272.800,232.000 270.979,232.000 270.030 C 232.000 269.627,232.265 269.078,232.589 268.809 C 232.914 268.540,233.301 267.666,233.451 266.868 C 233.601 266.070,234.055 264.873,234.460 264.208 C 234.865 263.544,235.198 262.668,235.199 262.263 C 235.199 261.858,235.560 261.069,236.000 260.509 C 236.440 259.950,236.800 259.050,236.800 258.509 C 236.800 257.969,237.160 257.069,237.600 256.509 C 238.040 255.950,238.401 255.111,238.403 254.646 C 238.404 254.181,238.763 253.260,239.200 252.600 C 239.637 251.940,239.996 251.158,239.997 250.863 C 239.999 250.568,240.360 249.869,240.800 249.309 C 241.240 248.750,241.600 247.961,241.600 247.556 C 241.600 247.151,241.959 246.230,242.399 245.510 C 242.838 244.789,243.198 243.889,243.199 243.510 C 243.199 243.130,243.559 242.230,243.999 241.510 C 244.438 240.789,244.798 239.817,244.799 239.349 C 244.799 238.881,245.065 238.278,245.389 238.009 C 245.714 237.740,246.101 236.867,246.251 236.070 C 246.400 235.272,246.765 234.378,247.061 234.082 C 247.357 233.786,247.696 233.062,247.815 232.472 C 247.934 231.882,248.295 230.890,248.616 230.268 C 250.261 227.078,248.660 225.393,245.986 227.500 M246.439 231.520 C 246.198 231.601,246.000 232.001,246.000 232.410 C 246.000 232.818,245.820 233.264,245.600 233.400 C 245.380 233.536,245.200 233.991,245.200 234.411 C 245.200 234.832,244.840 235.817,244.400 236.600 C 243.960 237.383,243.600 238.379,243.600 238.812 C 243.600 239.245,243.420 239.600,243.200 239.600 C 242.980 239.600,242.800 239.949,242.800 240.376 C 242.800 240.803,242.620 241.264,242.400 241.400 C 242.180 241.536,242.000 241.991,242.000 242.411 C 242.000 242.832,241.640 243.817,241.200 244.600 C 240.760 245.383,240.400 246.255,240.400 246.537 C 240.400 246.819,240.040 247.436,239.600 247.908 C 239.160 248.380,238.800 249.039,238.800 249.371 C 238.800 249.704,238.440 250.617,238.000 251.400 C 237.560 252.183,237.200 253.089,237.200 253.412 C 237.200 253.735,237.020 254.000,236.800 254.000 C 236.580 254.000,236.400 254.349,236.400 254.776 C 236.400 255.203,236.220 255.664,236.000 255.800 C 235.780 255.936,235.600 256.487,235.600 257.024 C 235.600 257.561,235.420 258.000,235.200 258.000 C 234.980 258.000,234.800 258.349,234.800 258.776 C 234.800 259.203,234.620 259.664,234.400 259.800 C 234.180 259.936,234.000 260.487,234.000 261.024 C 234.000 261.561,233.820 262.000,233.600 262.000 C 233.380 262.000,233.200 262.349,233.200 262.776 C 233.200 263.203,233.020 263.664,232.800 263.800 C 232.580 263.936,232.400 264.380,232.400 264.786 C 232.400 265.424,231.908 266.602,230.350 269.695 C 230.157 270.077,230.000 270.662,230.000 270.995 C 230.000 271.328,229.820 271.600,229.600 271.600 C 229.380 271.600,229.200 272.039,229.200 272.576 C 229.200 273.113,229.020 273.664,228.800 273.800 C 228.580 273.936,228.400 274.397,228.400 274.824 C 228.400 275.251,228.220 275.600,228.000 275.600 C 227.780 275.600,227.600 275.865,227.600 276.188 C 227.600 276.511,227.240 277.417,226.800 278.200 C 226.360 278.983,226.000 279.871,226.000 280.172 C 226.000 280.473,225.460 281.745,224.800 283.000 C 224.140 284.255,223.600 285.612,223.600 286.017 C 223.600 286.422,223.420 286.864,223.200 287.000 C 222.980 287.136,222.800 287.687,222.800 288.224 C 222.800 288.761,222.620 289.200,222.400 289.200 C 222.180 289.200,222.000 289.472,222.000 289.805 C 222.000 290.138,221.820 290.768,221.600 291.205 C 221.380 291.642,221.020 292.358,220.800 292.795 C 220.580 293.232,220.400 293.862,220.400 294.195 C 220.400 294.528,220.220 294.800,220.000 294.800 C 219.780 294.800,219.600 295.149,219.600 295.576 C 219.600 296.003,219.420 296.464,219.200 296.600 C 218.980 296.736,218.800 297.199,218.800 297.629 C 218.800 298.059,218.641 298.723,218.447 299.105 C 218.252 299.487,217.871 300.340,217.600 301.000 C 217.329 301.660,216.948 302.513,216.753 302.895 C 216.559 303.277,216.400 303.941,216.400 304.371 C 216.400 304.801,216.220 305.264,216.000 305.400 C 215.780 305.536,215.600 306.087,215.600 306.624 C 215.600 307.161,215.420 307.600,215.200 307.600 C 214.980 307.600,214.800 308.140,214.800 308.800 C 214.800 309.460,214.620 310.000,214.400 310.000 C 214.180 310.000,214.000 310.362,214.000 310.805 C 214.000 311.248,213.840 311.923,213.644 312.305 C 213.448 312.687,212.863 313.900,212.344 315.000 C 211.825 316.100,211.265 317.060,211.100 317.133 C 210.935 317.207,210.800 317.691,210.800 318.210 C 210.800 318.728,210.620 319.264,210.400 319.400 C 210.180 319.536,210.000 319.997,210.000 320.424 C 210.000 320.851,209.820 321.200,209.600 321.200 C 209.380 321.200,209.200 321.560,209.200 322.000 C 209.200 322.440,209.020 322.800,208.800 322.800 C 208.580 322.800,208.400 323.149,208.400 323.576 C 208.400 324.003,208.220 324.464,208.000 324.600 C 207.780 324.736,207.600 325.287,207.600 325.824 C 207.600 326.361,207.420 326.800,207.200 326.800 C 206.980 326.800,206.800 327.160,206.800 327.600 C 206.800 328.040,206.620 328.400,206.400 328.400 C 206.180 328.400,206.000 328.683,206.000 329.029 C 206.000 329.635,205.098 330.800,204.629 330.800 C 204.503 330.800,204.400 330.440,204.400 330.000 C 204.400 329.560,204.220 329.200,204.000 329.200 C 203.780 329.200,203.600 328.840,203.600 328.400 C 203.600 327.960,203.420 327.600,203.200 327.600 C 202.980 327.600,202.800 327.240,202.800 326.800 C 202.800 326.360,202.620 326.000,202.400 326.000 C 202.180 326.000,202.000 325.640,202.000 325.200 C 202.000 324.760,201.820 324.400,201.600 324.400 C 201.380 324.400,201.200 324.040,201.200 323.600 C 201.200 323.160,201.020 322.800,200.800 322.800 C 200.580 322.800,200.400 322.547,200.400 322.238 C 200.400 321.753,199.848 320.480,198.350 317.505 C 198.157 317.123,198.000 316.538,198.000 316.205 C 198.000 315.872,197.865 315.599,197.700 315.597 C 197.341 315.593,196.400 313.656,196.400 312.920 C 196.400 312.634,196.220 312.400,196.000 312.400 C 195.780 312.400,195.600 312.040,195.600 311.600 C 195.600 311.160,195.420 310.800,195.200 310.800 C 194.980 310.800,194.800 310.440,194.800 310.000 C 194.800 309.560,194.620 309.200,194.400 309.200 C 194.180 309.200,194.000 308.840,194.000 308.400 C 194.000 307.960,193.820 307.600,193.600 307.600 C 193.380 307.600,193.200 307.240,193.200 306.800 C 193.200 306.360,193.020 306.000,192.800 306.000 C 192.580 306.000,192.400 305.561,192.400 305.024 C 192.400 304.487,192.220 303.936,192.000 303.800 C 191.780 303.664,191.600 303.218,191.600 302.810 C 191.600 302.401,191.465 302.007,191.300 301.933 C 191.135 301.860,190.575 300.900,190.056 299.800 C 189.537 298.700,188.952 297.487,188.756 297.105 C 188.560 296.723,188.400 296.048,188.400 295.605 C 188.400 295.162,188.220 294.800,188.000 294.800 C 187.780 294.800,187.600 294.440,187.600 294.000 C 187.600 293.560,187.420 293.200,187.200 293.200 C 186.980 293.200,186.800 292.840,186.800 292.400 C 186.800 291.960,186.620 291.600,186.400 291.600 C 186.180 291.600,186.000 291.060,186.000 290.400 C 186.000 289.740,185.820 289.200,185.600 289.200 C 185.380 289.200,185.200 288.840,185.200 288.400 C 185.200 287.960,185.020 287.600,184.800 287.600 C 184.580 287.600,184.400 287.245,184.400 286.812 C 184.400 286.379,184.040 285.383,183.600 284.600 C 183.160 283.817,182.800 282.929,182.800 282.628 C 182.800 282.327,182.260 281.055,181.600 279.800 C 180.940 278.545,180.400 277.267,180.400 276.959 C 180.400 276.652,180.220 276.400,180.000 276.400 C 179.780 276.400,179.600 276.128,179.600 275.795 C 179.600 275.462,179.443 274.877,179.250 274.495 C 177.752 271.520,177.200 270.247,177.200 269.762 C 177.200 269.453,177.020 269.200,176.800 269.200 C 176.580 269.200,176.400 268.928,176.400 268.595 C 176.400 268.262,176.243 267.677,176.050 267.295 C 174.552 264.320,174.000 263.047,174.000 262.562 C 174.000 262.253,173.864 262.000,173.698 262.000 C 173.428 262.000,173.146 261.431,172.013 258.600 C 171.742 257.924,167.548 249.144,165.222 244.384 C 164.458 242.821,165.106 241.346,166.113 242.353 C 166.359 242.599,167.838 242.800,169.400 242.800 C 170.962 242.800,172.411 242.968,172.620 243.174 C 173.824 244.360,206.171 244.358,207.380 243.173 C 207.589 242.968,208.973 242.800,210.456 242.800 C 211.939 242.800,213.264 242.620,213.400 242.400 C 213.536 242.180,214.346 242.000,215.200 242.000 C 216.054 242.000,216.864 241.820,217.000 241.600 C 217.136 241.380,217.856 241.200,218.600 241.200 C 219.344 241.200,220.064 241.020,220.200 240.800 C 220.336 240.580,220.876 240.400,221.400 240.400 C 221.924 240.400,222.464 240.220,222.600 240.000 C 222.736 239.780,223.379 239.600,224.029 239.600 C 224.679 239.600,225.568 239.420,226.005 239.200 C 226.442 238.980,227.158 238.620,227.595 238.400 C 228.032 238.180,228.664 238.000,229.000 238.000 C 229.593 238.000,230.016 237.834,231.895 236.862 C 232.387 236.608,233.141 236.400,233.571 236.400 C 234.001 236.400,234.464 236.220,234.600 236.000 C 234.736 235.780,235.182 235.600,235.590 235.600 C 235.999 235.600,236.393 235.463,236.467 235.296 C 236.540 235.129,238.175 234.203,240.100 233.238 C 242.025 232.274,243.600 231.330,243.600 231.142 C 243.600 230.954,243.960 230.800,244.400 230.800 C 244.840 230.800,245.200 230.633,245.200 230.429 C 245.200 230.225,245.515 229.996,245.900 229.919 C 246.679 229.764,247.186 231.271,246.439 231.520 M68.400 397.999 C 57.817 398.450,54.488 398.794,54.231 399.463 C 54.043 399.953,54.991 400.001,60.706 399.796 C 64.387 399.663,69.074 399.496,71.119 399.425 C 73.165 399.353,74.945 399.189,75.074 399.059 C 75.389 398.744,123.787 398.720,124.101 399.035 C 124.393 399.326,125.907 399.433,135.197 399.822 C 141.574 400.089,142.146 400.058,141.664 399.477 C 141.147 398.854,140.067 398.626,135.600 398.198 C 131.924 397.846,75.889 397.680,68.400 397.999 M258.400 398.022 C 249.575 398.433,247.821 398.652,247.182 399.422 C 246.679 400.028,262.575 399.921,266.000 399.296 C 268.371 398.863,317.247 398.735,319.000 399.157 C 322.132 399.912,342.400 400.202,342.400 399.492 C 342.400 399.000,341.716 398.824,339.100 398.641 C 337.285 398.514,334.720 398.317,333.400 398.203 C 329.008 397.824,265.919 397.672,258.400 398.022  M -25 0 L -5 0 L -5 20 L -25 20 Z M 405 0 L 425 0 L 425 20 L 405 20 Z" stroke="none" fill="#3d5a80" fill-rule="evenodd" transform="translate(490,0)"></path></g></svg>